<?xml version="1.0" encoding="UTF-8"?>
<!DOCTYPE svg PUBLIC "-//W3C//DTD SVG 1.1//EN" "http://www.w3.org/Graphics/SVG/1.1/DTD/svg11.dtd">
<!-- Creator: CorelDRAW X8 -->
<svg xmlns="http://www.w3.org/2000/svg" xml:space="preserve" width="60px" height="100px" version="1.1" style="shape-rendering:geometricPrecision; text-rendering:geometricPrecision; image-rendering:optimizeQuality; fill-rule:evenodd; clip-rule:evenodd"
viewBox="0 0 21000 29700"
 xmlns:xlink="http://www.w3.org/1999/xlink">
 <defs>
  <style type="text/css">
   <![CDATA[
    .str0 {stroke:#565857;stroke-width:25.4;stroke-linecap:round;stroke-linejoin:round}
    .fil2 {fill:none}
    .fil0 {fill:#346699}
    .fil1 {fill:#F4F0ED}
   ]]>
  </style>
 </defs>
 <g id="Слой_x0020_1">
  <metadata id="CorelCorpID_0Corel-Layer"/>
  <g id="_785609000">
   <path class="fil0" d="M5530 3834c-40,-85 -88,-234 -42,-324 43,-85 160,-35 231,-33 67,3 132,-124 259,-74 89,35 111,153 98,248 -8,59 -37,133 -66,210 -61,6 -142,15 -217,24 -76,8 -147,15 -197,18 -12,1 -24,1 -34,1 -11,-26 -22,-49 -32,-70z"/>
   <path class="fil1" d="M5742 3549c-56,6 -206,-97 -243,6 -39,109 63,262 98,348 50,-3 120,-10 196,-18 64,-7 132,-16 189,-21 58,-133 128,-276 54,-370 -27,-35 -69,-48 -114,-42 -81,12 -121,91 -180,97z"/>
  </g>
  <path class="fil2 str0" d="M5450 3822c-7,-5 -9,-7 -17,-12l-125 -71 127 -82 -125 -115 130 -33 -77 -170 190 27 30 -130 130 123 131 -148 42 140 198 -110 -17 178 165 -28 -128 186 173 32 -143 68 110 83 -177 40"/>
 </g>
</svg>
