<?xml version="1.0" encoding="UTF-8"?>
<!DOCTYPE svg PUBLIC "-//W3C//DTD SVG 1.1//EN" "http://www.w3.org/Graphics/SVG/1.1/DTD/svg11.dtd">
<!-- Creator: CorelDRAW X8 -->
<svg xmlns="http://www.w3.org/2000/svg" xml:space="preserve" width="210mm" height="297mm" version="1.1" style="shape-rendering:geometricPrecision; text-rendering:geometricPrecision; image-rendering:optimizeQuality; fill-rule:evenodd; clip-rule:evenodd"
viewBox="0 0 21000 29700"
 xmlns:xlink="http://www.w3.org/1999/xlink">
 <defs>
  <style type="text/css">
   <![CDATA[
    .fil1 {fill:#346699}
    .fil3 {fill:#8DCCE6}
    .fil2 {fill:#F4F0ED}
    .fil0 {fill:white}
   ]]>
  </style>
 </defs>
 <g id="Слой_x0020_1">
  <metadata id="CorelCorpID_0Corel-Layer"/>
  <g id="_853114896">
   <path class="fil0" d="M5702 -2920c-12,39 -25,99 -19,167 7,68 32,145 83,199 50,54 126,84 221,97 95,12 209,7 283,-22 74,-29 108,-82 139,-150 30,-68 58,-152 71,-212 14,-60 14,-97 13,-118 -2,-22 -5,-29 -11,-34 -5,-4 -11,-7 -22,-9l0 4c-2,25 -6,54 -17,76 -10,22 -27,36 -48,39 -20,4 -43,-3 -60,-9 -16,-5 -27,-10 -36,-5 -10,4 -19,17 -28,37 -9,21 -19,49 -32,73 -13,23 -29,42 -48,48 -19,5 -41,-3 -60,-10 -19,-7 -37,-13 -51,-4 -15,10 -28,34 -49,57 -22,24 -52,47 -83,56 -31,10 -64,5 -84,-19 -21,-23 -29,-65 -31,-100 -1,-34 6,-60 2,-72 -4,-11 -18,-8 -35,-7 -17,1 -36,1 -48,-13 -11,-14 -16,-42 -18,-65 -2,-22 -2,-41 -11,-52 -7,8 -14,24 -21,48z"/>
   <g>
    <path class="fil1" d="M5838 -2964c-61,-72 -147,-203 -126,-303 20,-93 146,-75 215,-91 66,-15 95,-155 231,-139 96,11 147,120 159,214 15,118 -33,314 -14,453 6,45 28,205 -9,201 -97,-11 -83,-223 -161,-212 -58,9 8,274 -43,278 -45,4 -141,-256 -183,-314 -26,-36 -49,-63 -69,-87z"/>
    <path class="fil2" d="M5968 -3294c-52,20 -224,-41 -233,68 -9,116 130,239 186,312 36,48 125,283 151,281 29,-2 -31,-239 50,-255 55,-10 74,45 93,100 15,43 30,87 60,94 20,-2 -1,-145 -5,-182 -20,-160 107,-444 -32,-548 -35,-26 -79,-29 -121,-11 -76,33 -94,119 -149,141z"/>
   </g>
   <path class="fil3" d="M5637 -3009c3,-3 25,1 49,6 25,5 50,11 64,24 13,12 14,31 14,47 0,15 -1,28 5,40 5,13 19,25 36,30 18,4 41,0 55,2 14,2 20,11 25,27 4,16 7,40 13,59 5,19 13,35 27,48 14,14 34,26 53,26 18,1 36,-11 49,-26 14,-15 25,-34 41,-49 15,-14 35,-24 50,-28 14,-3 23,1 37,0 14,-1 32,-6 49,-25 16,-19 31,-52 47,-72 15,-21 32,-29 55,-29 22,-1 52,6 73,-8 20,-13 32,-47 40,-70 8,-23 12,-35 15,-44 2,-8 3,-14 14,-19 11,-5 32,-11 55,-16 23,-5 47,-11 48,-9 1,2 -23,11 -42,18 -19,6 -33,11 -41,23 -7,13 -7,32 -8,56 -2,25 -6,54 -17,76 -10,22 -27,36 -48,39 -20,4 -43,-3 -60,-9 -16,-5 -27,-10 -36,-5 -10,4 -19,17 -28,37 -9,21 -19,49 -32,73 -13,23 -29,42 -48,48 -19,5 -41,-3 -60,-10 -19,-7 -37,-13 -51,-4 -15,10 -28,34 -49,57 -22,24 -52,47 -83,56 -31,10 -64,5 -84,-19 -21,-23 -29,-65 -31,-100 -1,-34 6,-60 2,-72 -4,-11 -18,-8 -35,-7 -17,1 -36,1 -48,-13 -11,-14 -16,-42 -18,-65 -3,-24 -2,-43 -13,-54 -10,-11 -31,-14 -50,-20 -20,-6 -37,-16 -34,-19z"/>
  </g>
 </g>
</svg>
