<?xml version="1.0" encoding="UTF-8"?>
<!DOCTYPE svg PUBLIC "-//W3C//DTD SVG 1.1//EN" "http://www.w3.org/Graphics/SVG/1.1/DTD/svg11.dtd">
<!-- Creator: CorelDRAW X8 -->
<svg xmlns="http://www.w3.org/2000/svg" xml:space="preserve" width="210mm" height="297mm" version="1.1" style="shape-rendering:geometricPrecision; text-rendering:geometricPrecision; image-rendering:optimizeQuality; fill-rule:evenodd; clip-rule:evenodd"
viewBox="0 0 21000 29700"
 xmlns:xlink="http://www.w3.org/1999/xlink">
 <defs>
  <style type="text/css">
   <![CDATA[
    .fil0 {fill:#346699}
    .fil3 {fill:#3E403F}
    .fil5 {fill:#4D4F4E}
    .fil4 {fill:#565857}
    .fil2 {fill:#8DCCE6}
    .fil1 {fill:#F4F0ED}
    .fil6 {fill:#565857;fill-rule:nonzero}
   ]]>
  </style>
 </defs>
 <g id="Слой_x0020_1">
  <metadata id="CorelCorpID_0Corel-Layer"/>
  <g id="_785617760">
   <path class="fil0" d="M5649 -734c-31,-66 -68,-180 -33,-250 33,-65 124,-27 178,-25 52,2 101,-96 199,-57 69,27 86,118 76,191 -13,90 -88,226 -101,334 -4,34 -20,158 -46,147 -71,-27 -18,-182 -78,-189 -45,-6 -48,205 -88,198 -34,-7 -53,-219 -73,-270 -12,-32 -24,-57 -34,-79z"/>
   <path class="fil1" d="M5811 -953c-42,4 -158,-75 -186,4 -30,84 49,204 75,269 18,43 37,235 57,239 22,4 25,-184 88,-179 43,3 46,47 49,93 3,34 5,70 27,81 14,3 28,-108 32,-136 16,-123 168,-309 85,-414 -21,-27 -53,-37 -87,-32 -63,9 -94,70 -140,75z"/>
   <path class="fil0" d="M6161 -755c-31,-66 -68,-180 -33,-250 33,-65 124,-27 178,-25 52,2 102,-96 199,-58 69,27 86,119 76,191 -13,91 -87,227 -101,334 -4,35 -20,159 -46,148 -71,-28 -18,-183 -78,-190 -45,-5 -48,206 -87,198 -35,-6 -54,-218 -74,-269 -12,-32 -24,-57 -34,-79z"/>
   <path class="fil1" d="M6324 -975c-43,5 -159,-74 -187,5 -30,84 49,203 76,269 17,43 36,235 56,239 22,4 25,-184 88,-180 43,3 46,48 49,93 3,35 5,70 27,82 14,2 28,-108 32,-136 16,-123 168,-309 85,-414 -21,-27 -53,-37 -87,-32 -63,9 -94,69 -139,74z"/>
   <path class="fil1" d="M5550 -660c-9,26 -19,66 -14,111 4,46 24,97 63,132 39,36 97,56 170,65 73,8 161,5 218,-15 54,-18 81,-51 103,-93 7,8 13,15 21,22 39,36 97,56 170,65 73,8 161,4 218,-15 57,-19 83,-54 107,-100 23,-45 45,-101 55,-141 11,-40 11,-64 10,-79 -2,-14 -4,-18 -9,-22 -5,-4 -13,-7 -32,-8 -19,-1 -49,-1 -96,3 -47,4 -112,12 -171,18 -59,7 -113,12 -152,15 -23,1 -41,1 -55,0 -2,-3 -3,-5 -6,-7 -5,-3 -13,-6 -32,-8 -6,0 -13,0 -21,0 -3,-1 -6,-2 -9,-1 -1,0 -3,0 -5,1 -16,0 -36,1 -61,3 -48,5 -112,12 -171,19 -59,6 -113,12 -152,14 -38,2 -62,2 -80,-3 -19,-5 -32,-14 -43,-13 -10,1 -18,12 -26,37z"/>
   <path class="fil2" d="M5521 -718c20,7 41,18 65,26 23,8 50,17 75,22 139,32 209,-7 331,-30 93,-18 96,-10 181,9 139,31 209,-8 331,-31 66,-12 111,-11 180,-13 -22,-15 -146,-17 -168,-16 -126,7 -197,53 -344,38 -94,-21 -139,-17 -164,-16 -143,7 -242,61 -412,27 -20,-4 -59,-15 -75,-16z"/>
   <g>
    <rect class="fil3" transform="matrix(0.872059 0.0306172 -0.0482901 1.37543 5735.1 -925.446)" width="238" height="117" rx="34" ry="34"/>
    <rect class="fil4" transform="matrix(0.705537 0.0247707 -0.0374982 1.06805 5754.3 -906.811)" width="238" height="117" rx="34" ry="34"/>
    <polygon class="fil5" points="5813,-905 5863,-903 5859,-778 5809,-780 "/>
    <path class="fil3" d="M5927 -874l-2 58c-62,-1 -122,-4 -179,-9l2 -53c0,-2 0,-3 0,-5 57,6 117,9 179,9z"/>
   </g>
   <g>
    <rect class="fil3" transform="matrix(-0.870339 0.0627243 0.0989303 1.37272 6452 -933.08)" width="238" height="117" rx="34" ry="34"/>
    <rect class="fil4" transform="matrix(-0.704145 0.050747 0.0768213 1.06594 6433.5 -913.751)" width="238" height="117" rx="34" ry="34"/>
    <polygon class="fil5" points="6375,-910 6325,-906 6334,-782 6384,-785 "/>
    <path class="fil3" d="M6262 -874l4 57c62,-3 122,-8 179,-16l-4 -53c0,-1 0,-2 0,-4 -57,8 -117,13 -179,16z"/>
   </g>
   <path class="fil6" d="M5566 -885c147,21 309,31 484,31 176,0 366,-10 569,-31l2 19c-204,22 -395,32 -571,32 -176,0 -339,-10 -487,-32l3 -19z"/>
  </g>
 </g>
</svg>
