<?xml version="1.0" encoding="UTF-8"?>
<!DOCTYPE svg PUBLIC "-//W3C//DTD SVG 1.1//EN" "http://www.w3.org/Graphics/SVG/1.1/DTD/svg11.dtd">
<!-- Creator: CorelDRAW X8 -->
<svg xmlns="http://www.w3.org/2000/svg" xml:space="preserve" width="210mm" height="297mm" version="1.1" style="shape-rendering:geometricPrecision; text-rendering:geometricPrecision; image-rendering:optimizeQuality; fill-rule:evenodd; clip-rule:evenodd"
viewBox="0 0 21000 29700"
 xmlns:xlink="http://www.w3.org/1999/xlink">
 <defs>
  <style type="text/css">
   <![CDATA[
    .fil0 {fill:#346699}
    .fil2 {fill:#8DCCE6}
    .fil1 {fill:#F4F0ED}
   ]]>
  </style>
 </defs>
 <g id="Слой_x0020_1">
  <metadata id="CorelCorpID_0Corel-Layer"/>
  <g id="_855626912">
   <path class="fil0" d="M9218 -5345c-40,-85 -89,-234 -43,-324 28,-55 86,-54 142,-46l0 0 114 40 -24 78 116 -14 -5 79 45 -57 51 135 94 -94 44 73c-31,113 -104,261 -119,380 -6,45 -26,206 -61,192 -91,-35 -22,-237 -100,-246 -59,-7 -63,267 -114,257 -45,-8 -70,-284 -95,-350 -16,-42 -31,-74 -45,-103z"/>
   <path class="fil1" d="M9390 -5636c-22,-6 -49,-16 -76,-24 -53,-15 -107,-20 -127,36 -39,109 64,265 98,350 22,55 48,305 74,310 28,6 31,-239 114,-233 55,4 59,62 63,121 4,45 7,91 35,105 19,4 37,-140 42,-177 12,-89 79,-204 117,-313l-27 -44 -99 100 -49 -130 -68 86 7 -132 -116 14 -10 3 22 -72z"/>
   <path class="fil1" d="M9089 -5249c-11,34 -24,85 -18,145 6,59 32,125 82,172 51,46 126,72 221,83 95,11 209,7 283,-19 74,-25 108,-70 139,-129 31,-59 58,-131 72,-183 13,-52 13,-84 12,-103 -1,-19 -4,-24 -11,-29 -6,-5 -17,-9 -41,-10 -25,-2 -64,-1 -126,4 -61,5 -144,15 -221,24 -77,8 -147,15 -197,18 -51,3 -81,2 -105,-4 -24,-6 -42,-18 -55,-17 -14,1 -24,15 -35,48z"/>
   <path class="fil2" d="M9051 -5324c27,10 54,23 85,34 30,11 65,21 97,29 182,40 273,-10 431,-40 85,-16 144,-15 233,-17 -29,-20 -189,-22 -217,-21 -187,10 -281,85 -531,36 -26,-5 -76,-20 -98,-21z"/>
  </g>
 </g>
</svg>
