<?xml version="1.0" encoding="UTF-8"?>
<!DOCTYPE svg PUBLIC "-//W3C//DTD SVG 1.1//EN" "http://www.w3.org/Graphics/SVG/1.1/DTD/svg11.dtd">
<!-- Creator: CorelDRAW X8 -->
<svg xmlns="http://www.w3.org/2000/svg" xml:space="preserve" width="210mm" height="297mm" version="1.1" style="shape-rendering:geometricPrecision; text-rendering:geometricPrecision; image-rendering:optimizeQuality; fill-rule:evenodd; clip-rule:evenodd"
viewBox="0 0 21000 29700"
 xmlns:xlink="http://www.w3.org/1999/xlink">
 <defs>
  <style type="text/css">
   <![CDATA[
    .fil0 {fill:#346699}
    .fil3 {fill:#8DCCE6}
    .fil2 {fill:#F4F0ED}
    .fil1 {fill:white}
   ]]>
  </style>
 </defs>
 <g id="Слой_x0020_1">
  <metadata id="CorelCorpID_0Corel-Layer"/>
  <g id="_785931160">
   <path class="fil0" d="M9225 -3055c-40,-85 -88,-234 -42,-324 43,-85 160,-36 230,-33 68,2 133,-125 260,-75 89,36 111,154 98,249 -16,117 -114,294 -131,433 -6,45 -26,206 -60,192 -92,-36 -23,-237 -101,-246 -58,-7 -63,266 -114,257 -44,-8 -70,-284 -95,-350 -16,-42 -31,-74 -45,-103z"/>
   <path class="fil1" d="M9437 -3340c-56,6 -206,-97 -243,6 -39,109 64,264 98,349 23,56 48,306 74,311 28,5 32,-239 114,-233 56,4 60,62 64,120 3,46 6,91 34,106 20,3 37,-140 42,-177 22,-159 219,-401 111,-537 -27,-35 -69,-48 -114,-42 -82,12 -122,91 -180,97z"/>
   <path class="fil2" d="M9096 -2959c-11,33 -24,85 -18,144 6,60 32,126 82,172 51,47 127,73 222,84 94,11 209,6 283,-19 74,-25 108,-71 138,-130 31,-58 58,-131 72,-183 14,-52 14,-83 12,-102 -1,-19 -4,-24 -10,-29 -7,-5 -17,-9 -42,-10 -25,-2 -64,-2 -125,4 -62,5 -145,15 -222,23 -77,9 -147,16 -197,19 -50,3 -81,2 -105,-4 -24,-7 -41,-18 -55,-17 -14,1 -23,15 -35,48z"/>
   <path class="fil3" d="M9059 -3034c27,10 54,23 85,34 30,11 64,21 96,28 182,41 273,-9 431,-39 86,-16 144,-16 234,-17 -29,-20 -190,-22 -218,-21 -187,9 -280,85 -530,36 -27,-5 -77,-20 -98,-21z"/>
  </g>
 </g>
</svg>
