<?xml version="1.0" encoding="UTF-8"?>
<!DOCTYPE svg PUBLIC "-//W3C//DTD SVG 1.1//EN" "http://www.w3.org/Graphics/SVG/1.1/DTD/svg11.dtd">
<!-- Creator: CorelDRAW X8 -->
<svg xmlns="http://www.w3.org/2000/svg" xml:space="preserve" width="210mm" height="297mm" version="1.1" style="shape-rendering:geometricPrecision; text-rendering:geometricPrecision; image-rendering:optimizeQuality; fill-rule:evenodd; clip-rule:evenodd"
viewBox="0 0 21000 29700"
 xmlns:xlink="http://www.w3.org/1999/xlink">
 <defs>
  <style type="text/css">
   <![CDATA[
    .fil0 {fill:#346699}
    .fil2 {fill:#8DCCE6}
    .fil1 {fill:#F4F0ED}
   ]]>
  </style>
 </defs>
 <g id="Слой_x0020_1">
  <metadata id="CorelCorpID_0Corel-Layer"/>
  <g id="_853119024">
   <path class="fil0" d="M9216 -653c-41,-86 -89,-234 -43,-325 43,-85 160,-35 231,-32 68,2 132,-125 259,-75 90,35 111,154 98,248 -16,118 -113,295 -131,434 -5,45 -25,205 -60,192 -91,-36 -23,-237 -101,-246 -58,-7 -63,266 -114,257 -44,-9 -69,-284 -95,-351 -16,-41 -31,-73 -44,-102z"/>
   <path class="fil1" d="M9427 -938c-56,6 -205,-97 -242,6 -40,109 63,264 98,349 22,56 48,306 74,311 27,5 31,-239 113,-234 56,4 60,62 64,121 3,45 7,91 35,106 19,3 36,-141 41,-177 22,-160 219,-401 111,-538 -27,-34 -69,-48 -114,-41 -81,12 -121,90 -180,97z"/>
   <path class="fil1" d="M9089 -304c-14,51 -27,103 -21,162 7,59 32,126 83,172 50,47 126,73 221,84 95,11 209,6 283,-19 74,-25 108,-71 137,-149 29,-78 53,-188 60,-285 6,-96 -4,-178 -33,-223 -30,-45 -78,-52 -132,-7 -55,44 -116,139 -153,188 -37,48 -49,49 -91,54 -41,4 -111,11 -161,-3 -49,-13 -77,-45 -100,-69 -22,-25 -37,-40 -52,-22 -15,17 -28,67 -41,117z"/>
   <path class="fil2" d="M9064 -502c32,29 65,70 101,102 35,31 75,61 110,80 200,108 265,-73 406,-196 76,-69 115,-83 223,-91 -265,-119 -401,269 -523,279 -60,5 -132,-24 -228,-109 -29,-14 -67,-64 -89,-65z"/>
  </g>
 </g>
</svg>
