<?xml version="1.0" encoding="UTF-8"?>
<!DOCTYPE svg PUBLIC "-//W3C//DTD SVG 1.1//EN" "http://www.w3.org/Graphics/SVG/1.1/DTD/svg11.dtd">
<!-- Creator: CorelDRAW X8 -->
<svg xmlns="http://www.w3.org/2000/svg" xml:space="preserve" width="210mm" height="297mm" version="1.1" style="shape-rendering:geometricPrecision; text-rendering:geometricPrecision; image-rendering:optimizeQuality; fill-rule:evenodd; clip-rule:evenodd"
viewBox="0 0 21000 29700"
 xmlns:xlink="http://www.w3.org/1999/xlink">
 <defs>
  <style type="text/css">
   <![CDATA[
    .fil0 {fill:#346699}
    .fil3 {fill:#8DCCE6}
    .fil2 {fill:#F4F0ED}
    .fil1 {fill:#565857;fill-rule:nonzero}
   ]]>
  </style>
 </defs>
 <g id="Слой_x0020_1">
  <metadata id="CorelCorpID_0Corel-Layer"/>
  <g id="_785916232">
   <path class="fil0" d="M12591 -3054c-14,-64 -17,-149 8,-198 43,-85 160,-35 231,-32 68,2 132,-125 259,-75 89,35 111,154 98,248 -1,11 -4,43 -7,55 -37,-10 -128,-12 -146,-11 -136,7 -204,62 -386,26 -15,-2 -39,-9 -57,-13z"/>
   <g>
    <path class="fil1" d="M12699 -2877c3,-12 9,-31 28,-46 19,-15 52,-26 93,-35 41,-9 90,-17 133,-14 43,3 81,16 101,34 19,17 20,39 15,60 -5,21 -17,42 -57,57 -40,16 -107,27 -162,26 -56,0 -100,-12 -124,-24 -24,-12 -29,-23 -30,-31 -2,-9 0,-15 3,-27z"/>
    <path class="fil2" d="M12713 -2859c3,-12 8,-30 26,-45 18,-15 48,-25 86,-35 38,-9 83,-17 123,-14 40,3 75,16 93,34 18,17 19,38 14,59 -5,21 -16,41 -52,57 -37,15 -99,26 -151,25 -51,0 -92,-12 -114,-24 -23,-11 -27,-22 -28,-30 -2,-9 -1,-15 3,-27z"/>
   </g>
   <path class="fil0" d="M12642 -2790c-14,-28 -28,-63 -39,-100 10,4 20,8 31,12 23,8 49,16 73,21 136,31 205,-7 323,-29 52,-10 91,-12 139,-12 -33,110 -99,246 -113,358 -5,45 -25,206 -60,192 -92,-36 -23,-237 -101,-246 -58,-7 -63,266 -114,257 -44,-8 -69,-284 -95,-351 -16,-41 -31,-73 -44,-102z"/>
   <path class="fil2" d="M12639 -2856c25,56 54,109 70,147 22,55 48,306 74,311 27,5 31,-240 113,-234 56,4 60,62 64,121 3,45 7,91 35,106 19,3 36,-141 41,-177 12,-85 73,-193 111,-296 -38,1 -73,3 -117,11 -118,23 -187,61 -323,30 -22,-5 -46,-12 -68,-19z"/>
   <path class="fil2" d="M12853 -3212c-56,6 -206,-97 -243,6 -14,41 -9,90 6,138 12,3 24,6 32,8 182,35 250,-20 386,-26 16,-1 88,0 131,7 20,-71 23,-138 -18,-189 -27,-34 -69,-48 -114,-41 -81,11 -121,90 -180,97z"/>
   <path class="fil2" d="M12513 -2694c-12,33 -25,85 -19,144 7,60 32,126 83,172 50,47 126,73 221,84 95,11 209,6 283,-19 74,-25 108,-71 139,-130 30,-59 58,-131 71,-183 14,-52 14,-83 13,-102 -2,-19 -5,-24 -11,-29 -7,-5 -17,-9 -42,-10 -25,-2 -64,-2 -125,4 -61,5 -145,15 -222,23 -76,9 -146,16 -197,19 -50,3 -81,2 -105,-4 -24,-7 -41,-18 -55,-17 -13,1 -23,15 -34,48z"/>
   <path class="fil3" d="M12475 -2769c27,9 54,23 85,34 30,11 65,21 97,28 181,41 272,-9 430,-39 86,-16 145,-16 234,-17 -29,-20 -190,-23 -218,-21 -187,9 -280,85 -530,36 -26,-5 -77,-20 -98,-21z"/>
   <path class="fil1" d="M12755 -3374c-6,-4 -6,-11 0,-15 7,-4 16,-4 22,1l42 31 0 -131c0,-5 7,-10 15,-10 9,0 15,5 15,10l0 130 38 -30c6,-4 15,-4 22,-1 6,4 7,11 1,16l-66 52c-2,1 -6,2 -10,2l0 0c-2,0 -3,0 -4,0 -3,-1 -5,-2 -7,-3l-68 -52z"/>
   <path class="fil0" d="M12603 -2889c18,6 36,15 57,22 20,7 43,13 65,18 121,24 182,-11 288,-33 57,-12 97,-12 156,-14 -19,-13 -127,-13 -145,-11 -126,8 -188,60 -356,31 -17,-3 -51,-13 -65,-13z"/>
   <path class="fil0" d="M12592 -3057c19,7 37,17 59,25 21,8 45,16 67,21 127,29 190,-10 300,-35 59,-13 100,-13 162,-15 -20,-15 -132,-15 -151,-14 -130,9 -195,68 -369,33 -18,-4 -53,-15 -68,-15z"/>
  </g>
 </g>
</svg>
