<?xml version="1.0" encoding="UTF-8"?>
<!DOCTYPE svg PUBLIC "-//W3C//DTD SVG 1.1//EN" "http://www.w3.org/Graphics/SVG/1.1/DTD/svg11.dtd">
<!-- Creator: CorelDRAW X8 -->
<svg xmlns="http://www.w3.org/2000/svg" xml:space="preserve" width="210mm" height="297mm" version="1.1" style="shape-rendering:geometricPrecision; text-rendering:geometricPrecision; image-rendering:optimizeQuality; fill-rule:evenodd; clip-rule:evenodd"
viewBox="0 0 21000 29700"
 xmlns:xlink="http://www.w3.org/1999/xlink">
 <defs>
  <style type="text/css">
   <![CDATA[
    .fil0 {fill:#346699}
    .fil3 {fill:#8DCCE6}
    .fil1 {fill:#F4F0ED}
    .fil2 {fill:#565857;fill-rule:nonzero}
   ]]>
  </style>
 </defs>
 <g id="Слой_x0020_1">
  <metadata id="CorelCorpID_0Corel-Layer"/>
  <path class="fil0" d="M12602 -5445c-40,-85 -88,-233 -42,-324 43,-85 160,-35 231,-33 67,3 132,-124 259,-74 89,35 111,153 98,248 -8,59 -37,133 -66,210 -61,6 -142,16 -217,24 -76,8 -147,15 -197,18 -12,1 -24,1 -34,1 -11,-26 -22,-49 -32,-70z"/>
  <path class="fil1" d="M12814 -5730c-56,6 -206,-97 -243,6 -39,109 63,262 98,348 50,-3 120,-10 196,-18 64,-7 132,-15 189,-21 58,-133 128,-276 54,-370 -27,-35 -69,-48 -114,-42 -81,12 -121,91 -180,97z"/>
  <path class="fil2" d="M12684 -5292c12,4 23,10 35,14 13,5 27,9 40,12 75,17 113,-4 178,-16 35,-7 59,-7 96,-7 -12,-8 -78,-9 -89,-9 -78,4 -116,35 -219,15 -11,-2 -32,-8 -41,-9z"/>
  <path class="fil2" d="M12707 -4988c10,4 20,9 31,13 11,3 23,7 35,10 64,14 97,-4 154,-14 30,-6 51,-6 83,-6 -10,-7 -68,-8 -78,-8 -67,4 -100,31 -190,13 -9,-2 -27,-7 -35,-8z"/>
  <path class="fil2" d="M12734 -4916c8,3 16,7 25,10 9,3 19,6 28,8 54,13 81,-2 128,-11 25,-5 43,-5 69,-5 -8,-6 -56,-7 -64,-6 -56,2 -83,25 -157,10 -8,-1 -23,-6 -29,-6z"/>
  <path class="fil2" d="M12766 -4850c6,2 12,5 19,8 6,2 14,4 21,6 40,9 60,-2 94,-9 19,-3 32,-3 51,-3 -6,-5 -41,-5 -47,-5 -41,2 -62,19 -116,8 -6,-1 -17,-4 -22,-5z"/>
  <path class="fil2" d="M12808 -4787c3,2 6,3 10,5 4,1 8,2 12,3 22,5 33,-1 52,-5 10,-2 17,-2 28,-2 -3,-2 -23,-3 -26,-2 -23,1 -34,10 -65,4 -3,-1 -9,-2 -11,-3z"/>
  <path class="fil2" d="M12684 -5217c12,4 23,9 35,14 13,4 27,8 40,11 75,17 113,-4 178,-16 35,-7 59,-6 96,-7 -12,-8 -78,-9 -89,-9 -78,4 -116,35 -219,15 -11,-2 -32,-8 -41,-8z"/>
  <path class="fil2" d="M12684 -5143c12,4 23,9 35,14 13,4 27,9 40,12 75,16 113,-4 178,-17 35,-6 59,-6 96,-7 -12,-8 -78,-9 -89,-8 -78,4 -116,35 -219,15 -11,-3 -32,-9 -41,-9z"/>
  <path class="fil2" d="M12684 -5069c12,4 23,10 35,14 13,5 27,9 40,12 75,17 113,-4 178,-16 35,-7 59,-7 96,-7 -12,-9 -78,-10 -89,-9 -78,4 -116,35 -219,15 -11,-2 -32,-8 -41,-9z"/>
  <path class="fil3" d="M12436 -5424c27,10 54,23 85,34 30,11 65,21 97,29 181,40 272,-10 430,-40 86,-16 145,-15 234,-17 -29,-20 -190,-22 -218,-21 -187,10 -280,85 -530,36 -26,-5 -77,-20 -98,-21z"/>
 </g>
</svg>
