<?xml version="1.0" encoding="UTF-8"?>
<!DOCTYPE svg PUBLIC "-//W3C//DTD SVG 1.1//EN" "http://www.w3.org/Graphics/SVG/1.1/DTD/svg11.dtd">
<!-- Creator: CorelDRAW X8 -->
<svg xmlns="http://www.w3.org/2000/svg" xml:space="preserve" width="210mm" height="297mm" version="1.1" style="shape-rendering:geometricPrecision; text-rendering:geometricPrecision; image-rendering:optimizeQuality; fill-rule:evenodd; clip-rule:evenodd"
viewBox="0 0 21000 29700"
 xmlns:xlink="http://www.w3.org/1999/xlink">
 <defs>
  <style type="text/css">
   <![CDATA[
    .fil0 {fill:url(#id0)}
   ]]>
  </style>
  <linearGradient id="id0" gradientUnits="userSpaceOnUse" x1="5530.8" y1="34001.6" x2="5530.8" y2="33780.1">
   <stop offset="0" style="stop-opacity:1; stop-color:#264B70"/>
   <stop offset="1" style="stop-opacity:1; stop-color:#346699"/>
  </linearGradient>
 </defs>
 <g id="Слой_x0020_1">
  <metadata id="CorelCorpID_0Corel-Layer"/>
  <path class="fil0" d="M5477 33781c-30,3 -53,25 -56,55 -1,7 -1,102 0,109 3,29 26,53 55,56 7,1 102,1 109,0 29,-3 53,-26 56,-55 1,-7 1,-102 0,-109 -3,-30 -26,-53 -55,-56 -7,-1 -102,-1 -109,0zm114 38c-12,3 -8,22 4,19 5,-1 9,-6 8,-12 -1,-4 -6,-8 -12,-7zm-118 71c0,33 26,59 58,59 31,0 57,-26 57,-59 0,-31 -25,-57 -58,-57 -31,0 -57,26 -57,57zm10 0c0,28 21,49 48,49 26,0 48,-22 48,-49 0,-25 -21,-47 -49,-47 -25,0 -47,22 -47,47z"/>
 </g>
</svg>
