<?xml version="1.0" encoding="UTF-8"?>
<!DOCTYPE svg PUBLIC "-//W3C//DTD SVG 1.1//EN" "http://www.w3.org/Graphics/SVG/1.1/DTD/svg11.dtd">
<!-- Creator: CorelDRAW X8 -->
<svg xmlns="http://www.w3.org/2000/svg" xml:space="preserve" width="210mm" height="297mm" version="1.1" style="shape-rendering:geometricPrecision; text-rendering:geometricPrecision; image-rendering:optimizeQuality; fill-rule:evenodd; clip-rule:evenodd"
viewBox="0 0 21000 29700"
 xmlns:xlink="http://www.w3.org/1999/xlink">
 <defs>
  <style type="text/css">
   <![CDATA[
    .fil0 {fill:url(#id0)}
   ]]>
  </style>
  <linearGradient id="id0" gradientUnits="userSpaceOnUse" x1="6244.87" y1="33971.2" x2="6244.87" y2="33810.5">
   <stop offset="0" style="stop-opacity:1; stop-color:#264B70"/>
   <stop offset="1" style="stop-opacity:1; stop-color:#346699"/>
  </linearGradient>
 </defs>
 <g id="Слой_x0020_1">
  <metadata id="CorelCorpID_0Corel-Layer"/>
  <path class="fil0" d="M6265 33818c-7,-8 -13,-8 -33,-7 -15,0 -24,2 -34,6 1,1 2,3 3,4l4 4c17,17 9,54 3,64 -26,-1 -33,-57 -51,-70 -10,-3 -40,-3 -50,1 -6,14 43,112 94,140 19,10 42,12 65,8 4,-16 -1,-25 13,-35 30,11 18,46 91,37 5,-1 2,0 7,-2 7,-3 1,0 5,-4 12,-18 -49,-50 -42,-68 6,-17 50,-55 42,-76 -11,-5 -47,-3 -59,-1 -10,5 -26,69 -52,68 -5,-16 3,-57 -6,-69z"/>
 </g>
</svg>
