<?xml version="1.0" encoding="UTF-8"?>
<!DOCTYPE svg PUBLIC "-//W3C//DTD SVG 1.1//EN" "http://www.w3.org/Graphics/SVG/1.1/DTD/svg11.dtd">
<!-- Creator: CorelDRAW X8 -->
<svg xmlns="http://www.w3.org/2000/svg" xml:space="preserve" width="210mm" height="297mm" version="1.1" style="shape-rendering:geometricPrecision; text-rendering:geometricPrecision; image-rendering:optimizeQuality; fill-rule:evenodd; clip-rule:evenodd"
viewBox="0 0 21000 29700"
 xmlns:xlink="http://www.w3.org/1999/xlink">
 <defs>
  <style type="text/css">
   <![CDATA[
    .fil0 {fill:url(#id0)}
   ]]>
  </style>
  <linearGradient id="id0" gradientUnits="userSpaceOnUse" x1="6656.61" y1="34011.8" x2="6656.61" y2="33770.9">
   <stop offset="0" style="stop-opacity:1; stop-color:#264B70"/>
   <stop offset="1" style="stop-opacity:1; stop-color:#346699"/>
  </linearGradient>
 </defs>
 <g id="Слой_x0020_1">
  <metadata id="CorelCorpID_0Corel-Layer"/>
  <path id="YouTube" class="fil0" d="M6726 33947l-13 0 0 -8c0,-3 3,-6 6,-6l1 0c3,0 6,3 6,6l0 8zm-50 -16c-3,0 -6,2 -6,5l0 37c0,3 3,5 6,5 4,0 7,-2 7,-5l0 -37c0,-3 -3,-5 -7,-5zm81 -21l0 71c0,17 -15,31 -33,31l-135 0c-18,0 -33,-14 -33,-31l0 -71c0,-17 15,-31 33,-31l135 0c18,0 33,14 33,31zm-159 79l0 -75 17 0 0 -11 -45 0 0 10 14 0 0 76 14 0zm50 -64l-14 0 0 40c0,6 1,8 0,10 -1,3 -6,6 -8,0 0,-1 0,-4 0,-10l0 -40 -14 0 0 39c0,7 0,11 0,13 1,4 0,8 4,10 6,5 18,0 21,-7l0 9 11 0 0 -64 0 0zm45 46l0 -34c0,-12 -10,-20 -22,-10l0 -24 -14 0 0 85 11 0 1 -5c15,13 24,4 24,-12zm44 -5l-11 0c0,1 0,1 0,2l0 6c0,3 -2,5 -6,5l-2 0c-3,0 -5,-2 -5,-5l0 -1 0 -7 0 -8 24 0 0 -9c0,-6 -1,-13 -1,-17 -2,-12 -19,-14 -27,-8 -3,2 -5,5 -6,8 -1,4 -2,8 -2,14l0 20c0,33 40,29 36,0zm-54 -107c1,1 2,3 3,4 2,1 4,1 6,1 2,0 4,0 5,-1 2,-1 3,-3 4,-5l0 5 16 0 0 -66 -13 0 0 51c0,3 -2,6 -5,6 -3,0 -5,-3 -5,-6l0 -51 -13 0 0 45c0,5 0,9 1,11 0,2 0,4 1,6zm-47 -38c0,-6 0,-11 1,-15 1,-3 3,-6 6,-8 3,-2 6,-4 11,-4 3,0 6,1 9,3 2,1 4,3 6,5 1,2 2,4 3,7 0,2 1,6 1,11l0 16c0,7 -1,11 -1,14 -1,3 -2,5 -3,8 -2,2 -4,4 -6,5 -3,2 -6,2 -9,2 -3,0 -6,0 -9,-1 -2,-1 -4,-3 -5,-5 -2,-2 -3,-4 -3,-7 -1,-3 -1,-8 -1,-13l0 -18 0 0zm12 26c0,4 3,7 6,7 4,0 6,-3 6,-7l0 -35c0,-4 -2,-7 -6,-7 -3,0 -6,3 -6,7l0 35zm-43 18l15 0 0 -51 17 -43 -16 0 -9 32 -10 -32 -16 0 19 44 0 50z"/>
 </g>
</svg>
