<svg width="25" height="25" viewBox="0 0 25 25" fill="none" xmlns="http://www.w3.org/2000/svg">
<g clip-path="url(#clip0)">
<path d="M21.4492 25H3.55152C3.44773 25 3.34849 24.9576 3.27728 24.8826C3.20606 24.8076 3.16818 24.7069 3.17273 24.6031L4.025 6.70533C4.03485 6.50306 4.20076 6.34473 4.40379 6.34473H20.597C20.7992 6.34473 20.9659 6.50306 20.9758 6.70533L21.828 24.6031C21.8326 24.7069 21.7955 24.8076 21.7235 24.8826C21.6515 24.9576 21.5523 25 21.4492 25ZM3.94849 24.2425H21.0515L20.2356 7.1023H4.7644L3.94849 24.2425Z" fill="#FEED00"/>
<path d="M16.5948 8.61742C16.3857 8.61742 16.216 8.44773 16.216 8.23864V4.47348C16.216 2.425 14.5493 0.757576 12.5001 0.757576C10.4509 0.757576 8.78419 2.425 8.78419 4.47348V8.23864C8.78419 8.44773 8.61449 8.61742 8.4054 8.61742C8.19631 8.61742 8.02661 8.44773 8.02661 8.23864V4.47348C8.02661 2.00682 10.0334 0 12.5001 0C14.9668 0 16.9736 2.00682 16.9736 4.47348V8.23864C16.9736 8.44773 16.8046 8.61742 16.5948 8.61742Z" fill="#FEED00"/>
</g>
<defs>
<clipPath id="clip0">
<rect width="25" height="25" fill="white"/>
</clipPath>
</defs>
</svg>
