<svg width="25" height="33" viewBox="0 0 25 33" fill="none" xmlns="http://www.w3.org/2000/svg">
<path d="M24.313 33H0.687984C0.550984 33 0.419984 32.944 0.325984 32.845C0.231984 32.746 0.181984 32.613 0.187984 32.476L1.31298 8.851C1.32598 8.584 1.54498 8.375 1.81298 8.375H23.188C23.455 8.375 23.675 8.584 23.688 8.851L24.813 32.476C24.819 32.613 24.77 32.746 24.675 32.845C24.58 32.944 24.449 33 24.313 33ZM1.21198 32H23.788L22.711 9.375H2.28898L1.21198 32Z" fill="#333333"/>
<path d="M17.905 11.375C17.629 11.375 17.405 11.151 17.405 10.875V5.905C17.405 3.201 15.205 1 12.5 1C9.79497 1 7.59497 3.201 7.59497 5.905V10.875C7.59497 11.151 7.37097 11.375 7.09497 11.375C6.81897 11.375 6.59497 11.151 6.59497 10.875V5.905C6.59497 2.649 9.24397 0 12.5 0C15.756 0 18.405 2.649 18.405 5.905V10.875C18.405 11.151 18.182 11.375 17.905 11.375Z" fill="#333333"/>
</svg>
