<svg width="25" height="26" viewBox="0 0 25 26" fill="none" xmlns="http://www.w3.org/2000/svg">
<g clip-path="url(#clip0)">
<mask id="path-1-inside-1" fill="white">
<path d="M12.5817 6.07507C10.8198 6.07507 9.38574 7.50914 9.38574 9.27101C9.38574 11.0329 10.8198 12.4669 12.5817 12.4669C14.3436 12.4669 15.7776 11.0329 15.7776 9.27101C15.7776 7.50914 14.3436 6.07507 12.5817 6.07507ZM12.5817 11.5538C11.3229 11.5538 10.2989 10.5298 10.2989 9.27101C10.2989 8.01227 11.3229 6.9882 12.5817 6.9882C13.8404 6.9882 14.8645 8.01227 14.8645 9.27101C14.8645 10.5298 13.8404 11.5538 12.5817 11.5538Z"/>
</mask>
<path d="M12.5817 5.07507C10.2675 5.07507 8.38574 6.95685 8.38574 9.27101H10.3857C10.3857 8.06142 11.3721 7.07507 12.5817 7.07507V5.07507ZM8.38574 9.27101C8.38574 11.5852 10.2675 13.4669 12.5817 13.4669V11.4669C11.3721 11.4669 10.3857 10.4806 10.3857 9.27101H8.38574ZM12.5817 13.4669C14.8958 13.4669 16.7776 11.5852 16.7776 9.27101H14.7776C14.7776 10.4806 13.7913 11.4669 12.5817 11.4669V13.4669ZM16.7776 9.27101C16.7776 6.95685 14.8958 5.07507 12.5817 5.07507V7.07507C13.7913 7.07507 14.7776 8.06142 14.7776 9.27101H16.7776ZM12.5817 10.5538C11.8752 10.5538 11.2989 9.97747 11.2989 9.27101H9.29887C9.29887 11.082 10.7707 12.5538 12.5817 12.5538V10.5538ZM11.2989 9.27101C11.2989 8.56455 11.8752 7.9882 12.5817 7.9882V5.9882C10.7707 5.9882 9.29887 7.45998 9.29887 9.27101H11.2989ZM12.5817 7.9882C13.2881 7.9882 13.8645 8.56455 13.8645 9.27101H15.8645C15.8645 7.45998 14.3927 5.9882 12.5817 5.9882V7.9882ZM13.8645 9.27101C13.8645 9.97747 13.2881 10.5538 12.5817 10.5538V12.5538C14.3927 12.5538 15.8645 11.082 15.8645 9.27101H13.8645Z" fill="#0A0E18" mask="url(#path-1-inside-1)"/>
<mask id="path-3-inside-2" fill="white">
<path d="M18.6918 3.16083C17.0381 1.50716 14.8393 0.596313 12.5008 0.596313C10.1619 0.596313 7.9635 1.50716 6.30983 3.16083C3.24949 6.22071 2.86918 11.978 5.48619 15.4661L12.5008 25.5963L19.505 15.4803C22.1325 11.978 21.7522 6.22071 18.6918 3.16083ZM18.7644 14.9465L12.5008 23.992L6.2272 14.9324C3.85353 11.7675 4.19367 6.56815 6.95587 3.80641C8.43696 2.32532 10.4061 1.50944 12.5008 1.50944C14.5955 1.50944 16.5647 2.32532 18.0462 3.80641C20.8084 6.56815 21.1486 11.7675 18.7644 14.9465Z"/>
</mask>
<path d="M18.6918 3.16083L17.9847 3.86793L17.9848 3.86799L18.6918 3.16083ZM6.30983 3.16083L7.01689 3.86799L7.01694 3.86793L6.30983 3.16083ZM5.48619 15.4661L6.30833 14.8968L6.29751 14.8812L6.28609 14.866L5.48619 15.4661ZM12.5008 25.5963L11.6787 26.1656L12.5009 27.353L13.323 26.1656L12.5008 25.5963ZM19.505 15.4803L18.705 14.8801L18.6936 14.8954L18.6828 14.911L19.505 15.4803ZM18.7644 14.9465L17.9644 14.3466L17.953 14.3617L17.9423 14.3772L18.7644 14.9465ZM12.5008 23.992L11.6787 24.5613L12.5008 25.7485L13.323 24.5612L12.5008 23.992ZM6.2272 14.9324L7.04932 14.3631L7.03855 14.3475L7.0272 14.3324L6.2272 14.9324ZM6.95587 3.80641L7.66292 4.51357L7.66298 4.51351L6.95587 3.80641ZM18.0462 3.80641L18.7533 3.09924L18.7532 3.09919L18.0462 3.80641ZM19.3989 2.45372C17.5577 0.612532 15.1046 -0.403687 12.5008 -0.403687V1.59631C14.5741 1.59631 16.5186 2.40178 17.9847 3.86793L19.3989 2.45372ZM12.5008 -0.403687C9.89658 -0.403687 7.44389 0.612552 5.60273 2.45372L7.01694 3.86793C8.48311 2.40176 10.4271 1.59631 12.5008 1.59631V-0.403687ZM5.60278 2.45367C3.86981 4.18638 2.93459 6.63531 2.77122 9.08636C2.60782 11.5379 3.20924 14.0975 4.6863 16.0662L6.28609 14.866C5.14613 13.3465 4.62921 11.2835 4.76679 9.21938C4.90441 7.1548 5.68952 5.19515 7.01689 3.86799L5.60278 2.45367ZM4.66406 16.0354L11.6787 26.1656L13.323 25.027L6.30833 14.8968L4.66406 16.0354ZM13.323 26.1656L20.3271 16.0495L18.6828 14.911L11.6787 25.0271L13.323 26.1656ZM20.3049 16.0804C21.7866 14.1053 22.3912 11.5426 22.2292 9.08876C22.0672 6.63556 21.1319 4.18645 19.3989 2.45367L17.9848 3.86799C19.3121 5.19509 20.0971 7.15455 20.2335 9.22052C20.3699 11.2858 19.8508 13.3529 18.705 14.8801L20.3049 16.0804ZM17.9423 14.3772L11.6787 23.4227L13.323 24.5612L19.5865 15.5158L17.9423 14.3772ZM13.3229 23.4226L7.04932 14.3631L5.40507 15.5017L11.6787 24.5613L13.3229 23.4226ZM7.0272 14.3324C6.00805 12.9735 5.54256 11.1299 5.66344 9.28354C5.78437 7.43645 6.48497 5.69132 7.66292 4.51357L6.24882 3.09924C4.66456 4.68324 3.81399 6.91865 3.66772 9.15288C3.5214 11.3878 4.07267 13.7263 5.4272 15.5324L7.0272 14.3324ZM7.66298 4.51351C8.95658 3.21991 10.6714 2.50944 12.5008 2.50944V0.509439C10.1408 0.509439 7.91734 1.43072 6.24876 3.0993L7.66298 4.51351ZM12.5008 2.50944C14.3302 2.50944 16.0451 3.2199 17.3392 4.51362L18.7532 3.09919C17.0843 1.43073 14.8608 0.509439 12.5008 0.509439V2.50944ZM17.3392 4.51357C18.5171 5.69125 19.2176 7.43617 19.3373 9.28462C19.457 11.1321 18.9894 12.9798 17.9644 14.3466L19.5644 15.5465C20.9236 13.7342 21.478 11.3927 21.3331 9.15535C21.1883 6.91893 20.3376 4.68331 18.7533 3.09924L17.3392 4.51357Z" fill="#0A0E18" mask="url(#path-3-inside-2)"/>
</g>
<defs>
<clipPath id="clip0">
<rect width="25" height="25" fill="white" transform="translate(0 0.596313)"/>
</clipPath>
</defs>
</svg>
