<?xml version="1.0" encoding="UTF-8"?>
<!-- Creator: CorelDRAW -->
<svg xmlns="http://www.w3.org/2000/svg" xml:space="preserve" width="239px" height="99px" version="1.1" style="shape-rendering:geometricPrecision; text-rendering:geometricPrecision; image-rendering:optimizeQuality; fill-rule:evenodd; clip-rule:evenodd"
viewBox="0 0 276.79 114.65"
 xmlns:xlink="http://www.w3.org/1999/xlink">
 <defs>
  <style type="text/css">
   <![CDATA[
    .fil0 {fill:white}
   ]]>
  </style>
 </defs>
 <g id="?A0?B5?B6?B8?BC_x0020_?B8???BE?BB?8F?2020?B8?B8">
  <metadata id="CorelCorpID_0Corel-Layer"/>
  <g id="_351476864">
   <path class="fil0" d="M276.77 56.95l-41.14 1.44 0 13.86c-12.21,0 -26.09,-0.7 -39.19,0 -17.82,0.37 -18.94,0.39 -23.79,-13.51l-8.21 0c0.38,39.8 77.85,57.32 84.87,55.83 -5.5,-8.74 -35.95,-10.95 -35.19,-35.8 9.35,0.77 12.77,-1.77 24.6,0.05 6.26,1.46 13.99,5.12 21.12,5.86 -11.06,-21.91 0.27,-20.84 16.95,-27.75l-0.02 0.02z"/>
   <path class="fil0" d="M167.82 39.06c11.02,3.33 28.53,2.23 41.79,2.23 15.47,0 30.43,-0.5 45.76,-0.5l4.43 -12.68c-7.06,1.45 -14.8,5.11 -21.08,5.83 -11.83,1.82 -15.25,1.79 -24.6,0.37 -0.74,-24.45 31.28,-25.57 33.63,-34.3 -20.86,-0.38 -71.35,19.68 -79.91,39.03l-0.02 0.02z"/>
   <path class="fil0" d="M47.44 67.15l0 -22.97c8.87,-0.37 6.71,2.54 7.06,10.58 -0.35,8.73 1.88,11.47 -7.06,12.39zm-8.21 -22.97l0 0 0 22.97 -5.3 -0.37c-2.55,-4.36 -2.17,-10.93 -1.79,-14.93 0.36,-8.04 -0.02,-7.67 7.09,-7.67zm-0.38 29.56l0 0 0 7.66 8.57 0 0 -7.66c16.38,-2.19 14.15,-7.86 13.79,-22.97 0,-15.72 -7.82,-12.06 -11.56,-14.25 -4.11,-0.74 -0.38,-3.65 -6.71,-2.56 -7.02,0.72 0,-0.35 -5.94,2.36 -3.36,1.3 -3.36,0.55 -6.73,1.3 -6.31,2.82 -5.21,9.45 -5.24,13.15 -1.11,16.4 -2.21,21.15 13.82,22.97z"/>
   <path class="fil0" d="M127.17 45.45l2.26 19.88 -5.97 1.8 3.71 -21.7 0 0.02zm-12.68 36.65l0 0c12.68,-0.72 3.74,-1.42 8.97,-9.24l7.4 0 1.52 7.82 6.73 0.7 -6.37 -47.79 -12.28 -0.35 -5.97 48.88 0 -0.02z"/>
   <path class="fil0" d="M164.44 58.76l8.21 0c2.97,-18.21 6.59,-17.14 22.58,-17.49 14.06,0.66 27.41,0 40.4,0l0 17.14 41.14 -1.44c-8.34,-6.22 -17.93,-1.58 -21.42,-16.16 -15.31,0 -30.29,0.51 -45.77,0.51 -6.77,0 -14.06,0.3 -22.47,-0.07 -9.61,0 -9.28,-2.19 -19.29,-2.17 -3.78,5.85 -3.38,12.04 -3.38,19.68l0 0z"/>
   <path class="fil0" d="M21.73 64.24l-7.09 0c0,8.4 1.12,10.22 -7.07,10.22 0,-8.73 -2.26,-26.64 1.84,-34.28 6.7,1.44 4.85,5.1 5.23,10.22l7.09 0c0,-8.78 0,-19.35 -13.42,-16.79 -6.15,0.37 -8.56,4.36 -8.2,10.18l0 13.53 0 14.58c-0.72,5.82 2.23,8.41 8.56,9.5 13.03,3.98 13.06,-8.21 13.06,-17.16z"/>
   <path class="fil0" d="M98.93 57.32l0 -16.05c6.64,1.07 5.9,1.45 6.62,7.64 0.38,7.31 -0.07,8.04 -6.62,8.41zm-9.37 24.08l0 0 9.37 0 0 -17.16c14.82,0.37 13.8,-8.02 13.8,-17.14 0,-14.61 -12.37,-13.86 -23.15,-13.86l0 48.16 -0.02 0z"/>
   <polygon class="fil0" points="64.95,81.38 85.45,81.38 85.45,74.46 73.15,74.46 73.15,61.33 84.31,61.33 84.31,53.44 73.15,53.44 73.15,41.27 85.45,41.27 85.45,33.24 64.95,33.24 "/>
   <path class="fil0" d="M148.43 88.34l6.69 1.01c1.5,-5.39 1.5,-56.46 0,-60.12 -10.04,-3.28 -5.97,6.94 -5.97,25.92 0,8.01 -2.22,26.99 -0.72,33.21l0 -0.02z"/>
   <path class="fil0" d="M174.88 55.13c25.94,-8.01 26.77,-6.94 56.26,-6.94l-48.07 -2.91c-4.83,2.17 -6.71,4.73 -8.19,9.85z"/>
  </g>
 </g>
</svg>
