<!DOCTYPE svg PUBLIC "-//W3C//DTD SVG 20010904//EN" "http://www.w3.org/TR/2001/REC-SVG-20010904/DTD/svg10.dtd">
<svg version="1.0" xmlns="http://www.w3.org/2000/svg" width="182px" height="102px" viewBox="0 0 1820 1020" preserveAspectRatio="xMidYMid meet">
<g id="layer101" fill="#5b5b5b" stroke="none">
 <path d="M925 718 c-10 -40 -20 -76 -22 -80 -2 -4 -25 6 -51 22 -62 39 -76 25 -39 -39 l27 -49 -24 -6 c-16 -4 -39 3 -69 20 -35 19 -57 24 -93 22 -26 -2 -49 -8 -51 -13 -2 -6 22 -19 52 -30 30 -10 53 -20 51 -23 -3 -2 -42 8 -87 23 -71 24 -86 26 -119 16 -21 -6 -43 -17 -49 -25 -9 -10 7 -16 87 -30 53 -10 105 -14 114 -11 9 4 27 0 40 -9 28 -20 27 -20 -150 5 -163 23 -253 22 -279 -4 -9 -9 -15 -19 -12 -21 2 -2 110 -14 239 -25 l234 -20 25 22 24 22 -18 -28 c-18 -28 -21 -29 -79 -23 -34 3 -156 13 -273 22 -192 14 -214 14 -241 0 -34 -17 -64 -54 -56 -68 3 -4 151 -8 330 -8 l324 0 22 45 c14 30 27 44 36 40 7 -3 19 -5 25 -5 8 0 9 -3 2 -8 -13 -9 -55 -80 -55 -93 0 -16 29 -10 70 16 21 13 41 21 43 17 3 -4 13 -40 23 -79 25 -99 44 -98 69 2 10 41 22 75 27 75 5 0 29 -11 53 -25 57 -34 66 -18 26 46 -16 27 -26 49 -21 49 4 0 14 2 22 5 8 3 23 -12 38 -40 l25 -45 322 0 c184 0 324 4 327 9 10 15 -42 69 -72 75 -15 4 -146 -3 -291 -14 -145 -11 -265 -19 -265 -18 -1 2 -10 14 -21 28 l-20 25 25 -22 25 -22 225 19 c124 11 234 20 245 20 18 1 17 3 -8 25 -36 32 -84 32 -283 5 -80 -12 -151 -19 -158 -16 -6 2 -3 5 7 5 9 1 17 6 17 12 0 7 10 9 25 5 23 -6 204 19 214 30 9 9 -35 33 -70 39 -33 6 -68 -4 -181 -50 -10 -4 -18 -3 -18 2 0 5 25 17 55 28 31 10 54 23 52 29 -2 6 -25 12 -51 14 -36 2 -58 -3 -93 -22 -49 -28 -61 -30 -81 -17 -11 7 -9 17 13 51 14 23 24 49 21 57 -5 12 -13 11 -50 -11 -25 -14 -48 -26 -53 -26 -5 0 -17 34 -28 75 -25 101 -44 102 -70 3z m36 -186 c8 2 14 -4 14 -12 0 -8 -8 -16 -17 -18 -10 -2 -18 2 -18 9 0 7 -15 29 -32 49 l-33 35 36 -33 c20 -18 42 -32 50 -30z m78 56 c-2 -2 -17 -14 -34 -28 l-30 -25 24 28 c14 15 29 27 34 27 6 0 8 -1 6 -2z m-142 -145 c-4 -3 -10 -3 -14 0 -3 4 0 7 7 7 7 0 10 -3 7 -7z m140 0 c-4 -3 -10 -3 -14 0 -3 4 0 7 7 7 7 0 10 -3 7 -7z"/>
 </g>
<g id="layer102" fill="#696969" stroke="none">
 <path d="M925 718 c-10 -40 -24 -81 -30 -91 -11 -16 -14 -16 -25 -2 -11 13 -10 14 6 9 26 -10 8 7 -39 35 -31 19 -38 20 -43 8 -7 -18 13 -60 25 -53 5 3 16 -3 26 -14 10 -11 13 -20 8 -20 -6 0 -14 7 -17 16 -4 9 -9 14 -12 11 -3 -3 -1 -14 5 -25 18 -33 -28 -37 -82 -6 -35 19 -57 24 -93 22 -26 -2 -49 -8 -51 -13 -2 -6 22 -19 52 -30 30 -10 53 -20 51 -23 -3 -2 -42 8 -87 23 -71 24 -86 26 -119 16 -21 -6 -43 -17 -49 -25 -9 -10 7 -16 87 -30 53 -10 105 -14 114 -11 9 4 27 0 40 -9 28 -20 27 -20 -150 5 -163 23 -253 22 -279 -4 -9 -9 -15 -19 -12 -21 2 -2 110 -14 239 -25 231 -20 235 -20 255 -1 12 12 25 16 33 11 11 -6 9 -15 -7 -42 -18 -29 -21 -31 -21 -12 0 12 5 25 10 28 6 3 10 12 10 18 0 7 -8 2 -18 -11 l-17 -22 -269 20 c-292 23 -307 22 -346 -28 -11 -13 -17 -28 -14 -33 3 -5 151 -9 330 -9 l324 0 22 45 c14 30 27 44 36 40 7 -3 19 -5 25 -5 8 0 9 -3 2 -8 -13 -9 -55 -80 -55 -93 0 -15 27 -10 64 12 37 22 48 36 20 25 -14 -5 -15 -4 -4 9 11 14 14 14 25 -2 7 -10 21 -51 31 -90 25 -99 44 -98 69 3 18 72 20 75 44 69 24 -5 24 -4 9 8 -10 8 -18 18 -18 22 0 5 9 0 20 -10 11 -10 17 -21 14 -26 -2 -4 9 -15 25 -24 18 -9 32 -11 36 -5 8 12 -23 72 -34 65 -5 -2 -15 3 -22 13 -13 15 -12 16 4 3 19 -15 24 -2 5 17 -8 8 -9 12 -1 12 6 0 17 2 25 5 8 3 23 -12 38 -40 l25 -45 322 0 c184 0 324 4 327 9 10 15 -42 69 -72 75 -15 4 -146 -3 -290 -14 l-264 -20 -19 22 c-11 13 -18 16 -15 8 3 -8 8 -22 12 -30 4 -11 16 -14 47 -12 23 3 40 2 37 -1 -3 -3 -22 -7 -42 -8 -30 -3 -41 1 -54 19 -9 13 -13 30 -10 39 6 14 9 13 29 -5 l22 -21 225 19 c124 11 234 20 245 20 18 1 17 3 -8 25 -36 32 -84 32 -283 5 -80 -12 -151 -19 -158 -16 -6 2 -3 5 7 5 9 1 17 5 17 9 0 5 21 8 48 8 63 0 192 23 192 36 0 5 -9 7 -20 3 -11 -3 -28 -1 -37 5 -15 9 -13 10 10 5 17 -3 26 -2 23 4 -3 5 -23 12 -44 16 -36 6 -68 -3 -184 -50 -10 -4 -18 -3 -18 2 0 5 25 17 55 28 31 10 54 23 52 29 -2 6 -25 12 -51 14 -36 2 -58 -3 -93 -22 -49 -28 -61 -30 -81 -17 -11 7 -9 17 13 51 34 54 28 77 -15 55 -17 -9 -28 -20 -26 -24 3 -5 -3 -16 -14 -26 -11 -10 -20 -15 -20 -10 0 4 8 14 18 22 15 12 15 13 -8 8 -25 -6 -27 -3 -45 69 -25 102 -44 103 -70 4z m25 -75 c0 -95 0 -96 -20 -78 -21 19 -24 47 -10 80 6 14 7 7 3 -21 -3 -27 -1 -44 7 -49 9 -6 12 8 10 56 -3 76 -2 109 5 109 3 0 5 -43 5 -97z m32 -6 l-3 -91 24 22 c13 12 27 22 31 22 4 0 -5 -11 -21 -24 -15 -13 -31 -22 -35 -19 -5 2 -8 47 -8 100 0 53 3 93 7 89 4 -4 6 -48 5 -99z m15 1 c-3 -8 -6 -5 -6 6 -1 11 2 17 5 13 3 -3 4 -12 1 -19z m10 -40 c-3 -8 -6 -5 -6 6 -1 11 2 17 5 13 3 -3 4 -12 1 -19z m83 18 c0 -2 -8 -10 -17 -17 -16 -13 -17 -12 -4 4 13 16 21 21 21 13z m-390 -20 c0 -8 -48 -12 -66 -5 -13 5 -7 8 24 8 23 1 42 -1 42 -3z m590 -6 c-8 -5 -25 -7 -36 -4 -12 3 -36 -1 -52 -10 -44 -23 -54 -19 -12 4 36 19 130 29 100 10z m-329 -58 c8 2 14 -4 14 -12 0 -21 -33 -25 -37 -4 -3 15 -16 17 -98 16 l-95 -1 45 14 c49 16 78 19 45 5 -15 -6 -6 -9 34 -9 45 -1 52 1 42 13 -7 8 -19 13 -29 11 -9 -1 -11 0 -4 2 7 3 9 10 6 16 -4 7 9 -3 28 -21 19 -18 41 -32 49 -30z m-414 41 c-4 -3 -10 -3 -14 0 -3 4 0 7 7 7 7 0 10 -3 7 -7z m140 0 c-4 -3 -10 -3 -14 0 -3 4 0 7 7 7 7 0 10 -3 7 -7z m68 -11 c-3 -3 -11 0 -18 7 -9 10 -8 11 6 5 10 -3 15 -9 12 -12z m632 11 c-4 -3 -10 -3 -14 0 -3 4 0 7 7 7 7 0 10 -3 7 -7z m-882 -13 c-11 -5 -27 -9 -35 -9 -13 -1 -13 0 0 9 8 5 24 9 35 9 l20 0 -20 -9z m72 3 c-4 -3 -10 -3 -14 0 -3 4 0 7 7 7 7 0 10 -3 7 -7z m457 -9 c-18 -14 -15 -15 36 -11 30 2 66 1 80 -4 16 -4 -7 -7 -64 -8 -88 -1 -89 -1 -71 19 10 11 23 20 28 20 6 0 2 -7 -9 -16z m323 9 c-4 -3 -10 -3 -14 0 -3 4 0 7 7 7 7 0 10 -3 7 -7z m-750 -10 c-4 -3 -10 -3 -14 0 -3 4 0 7 7 7 7 0 10 -3 7 -7z m480 1 c-3 -3 -12 -4 -19 -1 -8 3 -5 6 6 6 11 1 17 -2 13 -5z m223 -9 c-14 -8 -32 -14 -40 -14 -8 0 -1 7 15 14 39 18 57 18 25 0z m-763 -1 c-3 -3 -12 -4 -19 -1 -8 3 -5 6 6 6 11 1 17 -2 13 -5z m108 -4 c13 -6 15 -9 5 -9 -8 0 -22 4 -30 9 -18 12 -2 12 25 0z m748 3 c-7 -2 -19 -2 -25 0 -7 3 -2 5 12 5 14 0 19 -2 13 -5z m-800 -10 c-7 -2 -19 -2 -25 0 -7 3 -2 5 12 5 14 0 19 -2 13 -5z m744 1 c-3 -3 -12 -4 -19 -1 -8 3 -5 6 6 6 11 1 17 -2 13 -5z m-949 -21 c-15 -2 -42 -2 -60 0 -18 2 -6 4 27 4 33 0 48 -2 33 -4z m1242 -8 c24 -14 24 -14 -20 -13 -32 0 -38 2 -20 7 17 4 4 7 -40 12 l-65 6 60 1 c36 1 70 -4 85 -13z m-1301 -11 c2 -2 -12 -4 -33 -4 -22 0 -35 4 -31 10 5 9 52 4 64 -6z m139 9 c-10 -2 -26 -2 -35 0 -10 3 -2 5 17 5 19 0 27 -2 18 -5z m1000 0 c-10 -2 -26 -2 -35 0 -10 3 -2 5 17 5 19 0 27 -2 18 -5z m-920 -10 c-10 -2 -28 -2 -40 0 -13 2 -5 4 17 4 22 1 32 -1 23 -4z m359 0 c-8 -7 -147 -6 -155 2 -3 3 32 5 78 5 46 0 80 -3 77 -7z m240 1 c-3 -3 -36 -6 -73 -5 -58 1 -65 -1 -54 -14 19 -22 6 -18 -15 5 -18 20 -17 20 65 20 46 0 81 -3 77 -6z m251 -1 c-10 -2 -26 -2 -35 0 -10 3 -2 5 17 5 19 0 27 -2 18 -5z m-960 -10 c-10 -2 -28 -2 -40 0 -13 2 -5 4 17 4 22 1 32 -1 23 -4z m180 0 c-10 -2 -26 -2 -35 0 -10 3 -2 5 17 5 19 0 27 -2 18 -5z m752 -2 c33 -6 37 -9 15 -9 -16 0 -50 3 -75 7 -33 6 -37 9 -15 9 17 0 50 -3 75 -7z m143 2 c-13 -2 -33 -2 -45 0 -13 2 -3 4 22 4 25 0 35 -2 23 -4z m-965 -10 c-10 -2 -28 -2 -40 0 -13 2 -5 4 17 4 22 1 32 -1 23 -4z m179 1 c-3 -4 -32 -8 -64 -10 -40 -2 -52 0 -38 6 23 10 112 13 102 4z m120 -1 c-4 -3 -10 -3 -14 0 -3 4 0 7 7 7 7 0 10 -3 7 -7z m92 -90 c-1 -59 -4 -88 -8 -73 -4 14 -5 54 -3 89 4 47 2 62 -7 57 -6 -4 -12 -17 -12 -29 -1 -18 -2 -19 -6 -4 -4 15 21 57 34 57 1 0 3 -44 2 -97z m60 43 c-1 -20 -2 -20 -6 -1 -3 11 -10 25 -15 30 -7 7 -9 -11 -6 -55 3 -36 1 -76 -3 -90 -4 -15 -7 15 -8 74 -1 98 -1 99 19 81 11 -10 19 -28 19 -39z m68 47 c-4 -3 -10 -3 -14 0 -3 4 0 7 7 7 7 0 10 -3 7 -7z m123 -3 c0 -5 -2 -10 -4 -10 -3 0 -8 5 -11 10 -3 6 -1 10 4 10 6 0 11 -4 11 -10z m85 0 c17 -7 16 -9 -10 -9 -16 0 -39 4 -50 9 -17 7 -16 9 10 9 17 0 39 -4 50 -9z m-1062 -17 c-7 -2 -19 -2 -25 0 -7 3 -2 5 12 5 14 0 19 -2 13 -5z m1500 0 c-7 -2 -19 -2 -25 0 -7 3 -2 5 12 5 14 0 19 -2 13 -5z m-1543 -7 c0 -2 -7 -7 -16 -10 -8 -3 -12 -2 -9 4 6 10 25 14 25 6z m168 -3 c-16 -2 -40 -2 -55 0 -16 2 -3 4 27 4 30 0 43 -2 28 -4z m549 0 c-4 -3 -10 -3 -14 0 -3 4 0 7 7 7 7 0 10 -3 7 -7z m140 0 c-4 -3 -10 -3 -14 0 -3 4 0 7 7 7 7 0 10 -3 7 -7z m591 0 c-16 -2 -40 -2 -55 0 -16 2 -3 4 27 4 30 0 43 -2 28 -4z m148 -9 c18 -14 18 -14 -6 -3 -31 14 -36 19 -24 19 6 0 19 -7 30 -16z m-1288 -1 c-15 -2 -42 -2 -60 0 -18 2 -6 4 27 4 33 0 48 -2 33 -4z m372 3 c0 -2 -7 -9 -15 -16 -13 -11 -14 -10 -9 4 5 14 24 23 24 12z m643 -3 c-18 -2 -48 -2 -65 0 -18 2 -4 4 32 4 36 0 50 -2 33 -4z m-880 -10 c-18 -2 -48 -2 -65 0 -18 2 -4 4 32 4 36 0 50 -2 33 -4z m740 0 c-18 -2 -48 -2 -65 0 -18 2 -4 4 32 4 36 0 50 -2 33 -4z m-1223 -7 c0 -3 -5 -8 -12 -12 -7 -4 -8 -3 -4 4 7 12 16 16 16 8z m588 -3 c-10 -2 -28 -2 -40 0 -13 2 -5 4 17 4 22 1 32 -1 23 -4z m199 -35 c-3 -8 -6 -5 -6 6 -1 11 2 17 5 13 3 -3 4 -12 1 -19z m70 0 c-3 -8 -6 -5 -6 6 -1 11 2 17 5 13 3 -3 4 -12 1 -19z"/>
 </g>
<g id="layer103" fill="#8f8f8f" stroke="none">
 <path d="M925 718 c-10 -40 -20 -76 -22 -80 -2 -4 -25 6 -51 22 -62 39 -76 25 -39 -39 l27 -49 -24 -6 c-16 -4 -39 3 -69 20 -35 19 -57 24 -93 22 -26 -2 -49 -8 -51 -13 -2 -6 22 -19 52 -30 30 -10 53 -20 51 -23 -3 -2 -42 8 -87 23 -71 24 -86 26 -119 16 -21 -6 -43 -17 -49 -25 -9 -10 7 -16 87 -30 53 -10 105 -14 114 -11 9 4 27 0 40 -9 28 -20 27 -20 -150 5 -163 23 -253 22 -279 -4 -9 -9 -15 -19 -12 -21 2 -2 109 -14 238 -25 186 -16 238 -18 249 -8 12 10 14 9 10 -3 -2 -8 -20 -18 -39 -22 l-34 -6 34 1 c22 1 39 9 48 24 11 17 12 21 1 19 -7 -1 -18 -5 -24 -8 -6 -4 -110 1 -230 12 -120 11 -226 20 -234 20 -9 1 -5 6 10 15 34 19 90 18 266 -4 82 -11 168 -22 192 -24 23 -3 45 -7 49 -10 3 -3 -3 -21 -14 -39 l-19 -33 -318 -3 c-295 -2 -317 -1 -314 15 2 9 17 25 35 36 31 18 39 18 251 2 120 -9 229 -15 243 -13 13 2 -85 11 -218 21 -219 16 -245 16 -272 3 -33 -17 -63 -54 -55 -68 3 -4 151 -8 330 -8 l324 0 22 45 c18 37 26 44 43 39 40 -13 45 -24 23 -50 -27 -30 -36 -23 -14 11 9 14 13 25 9 25 -8 0 -53 -79 -53 -92 0 -15 31 -8 70 17 21 13 41 21 43 17 3 -4 13 -40 23 -79 25 -99 44 -98 69 2 10 41 22 75 27 75 5 0 29 -11 53 -25 57 -34 66 -18 26 46 -16 27 -26 49 -21 49 4 0 14 2 22 5 8 3 23 -12 38 -40 l25 -45 322 0 c184 0 324 4 327 9 10 15 -42 69 -72 75 -15 4 -144 -3 -287 -14 -143 -11 -263 -20 -267 -20 -5 0 -8 5 -8 11 0 5 4 8 8 5 5 -3 110 4 233 14 123 11 233 20 244 20 18 1 17 3 -8 25 -36 32 -84 32 -283 5 -80 -12 -151 -19 -158 -16 -6 2 -3 5 7 5 9 1 17 5 17 9 0 5 21 8 48 8 64 0 192 23 192 36 0 6 -8 7 -17 3 -50 -19 -172 -35 -197 -25 -14 5 -33 7 -41 4 -8 -4 -15 -2 -15 3 0 5 25 17 55 28 31 10 54 23 52 29 -2 6 -25 12 -51 14 -36 2 -58 -3 -93 -22 -49 -28 -61 -30 -81 -17 -11 7 -9 17 13 51 14 23 24 49 21 57 -5 12 -13 11 -50 -11 -25 -14 -48 -26 -53 -26 -5 0 -17 34 -28 75 -25 101 -44 102 -70 3z m23 -115 c-2 -60 0 -72 12 -70 21 3 19 -27 -2 -31 -9 -2 -18 4 -20 14 -3 14 -17 17 -103 16 l-100 -1 72 21 c61 18 75 19 89 7 18 -15 44 -21 44 -10 0 4 -8 16 -19 25 -18 16 -18 19 3 98 19 73 21 77 24 42 2 -21 2 -71 0 -111z m62 3 c0 -11 -8 -28 -17 -39 -11 -12 -12 -17 -4 -12 10 5 12 4 7 -3 -10 -17 4 -15 24 3 16 14 24 14 86 -2 l69 -18 -88 -3 c-57 -2 -94 1 -103 9 -10 8 -14 37 -13 113 l0 101 19 -65 c11 -36 19 -74 20 -84z m-120 14 c0 -17 -16 -11 -41 16 l-24 27 33 -17 c17 -9 32 -21 32 -26z m176 14 c-15 -14 -31 -22 -35 -19 -7 7 39 45 54 44 6 0 -3 -11 -19 -25z m38 4 c-26 -45 -37 -57 -46 -52 -5 3 3 19 18 35 30 31 40 37 28 17z m-264 -23 c13 -14 19 -25 13 -25 -6 0 -18 11 -27 25 -9 14 -15 25 -13 25 2 0 14 -11 27 -25z m-101 -34 c33 -18 34 -19 12 -26 -20 -6 -141 29 -141 41 0 12 100 0 129 -15z m571 15 c0 -12 -117 -46 -138 -41 -24 6 -24 6 9 25 29 16 129 28 129 16z m-405 -26 c10 -11 16 -20 13 -20 -3 0 -13 9 -23 20 -10 11 -16 20 -13 20 3 0 13 -9 23 -20z m134 17 c-2 -1 -13 -9 -24 -17 -19 -14 -19 -14 -6 3 7 9 18 17 24 17 6 0 8 -1 6 -3z m-429 -29 c54 -18 60 -22 42 -29 -12 -5 -56 -2 -104 6 -46 8 -85 15 -88 16 -10 1 55 28 71 29 8 0 44 -10 79 -22z m1036 -53 c14 -11 15 -14 4 -15 -8 0 -114 -9 -234 -20 -121 -10 -224 -16 -230 -12 -26 16 -35 9 -19 -15 16 -23 20 -25 77 -19 34 3 157 13 274 21 230 17 249 15 280 -32 l14 -23 -320 0 -320 0 -22 37 c-25 42 -19 48 48 52 26 1 103 10 172 20 160 24 250 26 276 6z m-739 -26 l-27 -20 -67 20 -68 19 94 1 94 1 -26 -21z m200 0 l-67 -20 -27 20 -26 21 94 -1 94 -1 -68 -19z m-158 -96 l-1 -108 -21 78 c-12 43 -29 83 -37 88 -13 9 -12 10 2 5 11 -3 24 3 35 19 10 13 19 25 21 25 1 0 2 -48 1 -107z m81 64 c11 4 11 2 -2 -8 -9 -8 -26 -48 -37 -89 l-19 -75 -1 104 -1 104 23 -20 c12 -11 29 -18 37 -16z m56 -29 l17 -33 -26 24 c-15 13 -24 28 -21 32 8 14 13 11 30 -23z m-196 -8 c0 -5 -15 -17 -32 -26 l-33 -17 24 27 c25 27 41 33 41 16z m190 -33 c0 -4 -11 0 -25 9 -14 9 -25 20 -25 26 0 11 49 -23 50 -35z"/>
 <path d="M1305 566 c-73 -30 -61 -34 15 -5 51 19 78 20 125 3 14 -5 17 -4 10 4 -22 24 -88 23 -150 -2z"/>
 </g>
<g id="layer104" fill="#b1b1b1" stroke="none">
 <path d="M949 663 l3 -128 -26 25 c-21 19 -25 30 -20 52 3 16 2 27 -3 26 -4 -1 -19 3 -33 10 l-25 13 23 -17 c12 -9 22 -23 22 -32 0 -11 -8 -8 -30 13 -16 15 -27 32 -24 36 2 4 -4 13 -14 18 -33 18 -43 -11 -16 -45 14 -18 14 -18 3 6 -10 22 -7 21 25 -9 40 -39 46 -56 16 -48 -11 3 -18 1 -15 -3 3 -5 -3 -11 -12 -14 -10 -2 -1 -2 20 1 28 4 43 1 58 -13 12 -11 23 -18 25 -16 2 1 4 -1 4 -5 0 -5 -51 -9 -112 -10 -62 -1 -107 1 -100 3 26 12 0 22 -29 12 -56 -20 -5 -31 123 -29 67 1 118 -2 118 -7 0 -5 -9 -17 -20 -27 -11 -10 -18 -21 -15 -23 3 -3 17 5 31 19 l26 24 -3 -128 c-3 -108 -2 -127 11 -127 13 0 14 19 11 127 l-3 128 26 -24 c14 -14 28 -22 31 -19 3 2 -4 13 -15 23 -11 10 -20 22 -20 27 0 4 48 8 106 8 103 0 130 -11 59 -24 -38 -7 -44 -22 -19 -52 14 -18 14 -18 3 6 -9 17 -9 25 -1 28 19 6 27 3 27 -10 0 -7 15 -13 35 -13 19 -1 25 0 13 2 -12 2 -27 11 -33 19 -11 12 -6 14 31 15 37 1 40 2 19 9 -14 4 -19 8 -12 9 7 1 20 7 27 15 12 11 12 15 1 19 -7 3 -19 1 -27 -4 -18 -11 -229 -12 -229 -1 0 5 9 17 20 27 14 13 29 16 57 11 35 -5 36 -5 13 6 -14 7 -27 13 -29 15 -8 6 52 62 61 57 11 -7 22 22 13 35 -6 10 -65 -12 -65 -25 0 -2 10 1 23 7 16 9 13 2 -12 -25 -24 -25 -37 -32 -42 -24 -4 7 -5 16 -3 20 3 4 0 8 -5 8 -15 0 -14 -27 2 -42 11 -10 9 -16 -14 -35 -15 -13 -30 -23 -34 -23 -4 0 -5 56 -3 125 2 106 1 125 -12 125 -13 0 -14 -19 -11 -127z m-44 -93 c10 -11 16 -20 13 -20 -3 0 -13 9 -23 20 -10 11 -16 20 -13 20 3 0 13 -9 23 -20z m71 -59 c-10 -16 -36 -13 -36 3 0 17 21 27 34 16 4 -5 5 -13 2 -19z"/>
 <path d="M926 724 c-4 -14 -5 -28 -3 -31 3 -2 8 8 11 23 4 14 5 28 3 31 -3 2 -8 -8 -11 -23z"/>
 <path d="M981 740 c0 -8 4 -24 9 -35 5 -13 9 -14 9 -5 0 8 -4 24 -9 35 -5 13 -9 14 -9 5z"/>
 <path d="M911 664 c0 -11 3 -14 6 -6 3 7 2 16 -1 19 -3 4 -6 -2 -5 -13z"/>
 <path d="M1001 664 c0 -11 3 -14 6 -6 3 7 2 16 -1 19 -3 4 -6 -2 -5 -13z"/>
 <path d="M1090 610 c-6 -11 -8 -20 -6 -20 3 0 10 9 16 20 6 11 8 20 6 20 -3 0 -10 -9 -16 -20z"/>
 <path d="M605 599 c-4 -6 -4 -13 -1 -16 3 -4 6 -1 6 5 0 6 8 13 18 15 15 4 15 5 0 6 -9 0 -20 -4 -23 -10z"/>
 <path d="M693 603 c4 -3 10 -3 14 0 3 4 0 7 -7 7 -7 0 -10 -3 -7 -7z"/>
 <path d="M1162 581 c-47 -25 -50 -29 -30 -35 32 -8 47 -6 23 3 -17 7 -13 12 30 34 28 14 46 26 40 26 -5 0 -34 -13 -63 -28z"/>
 <path d="M1290 603 c8 -3 19 -11 23 -17 6 -7 7 -6 4 4 -2 8 -12 16 -23 17 -13 2 -15 1 -4 -4z"/>
 <path d="M720 597 c0 -7 72 -48 76 -44 2 2 -14 14 -36 26 -22 12 -40 20 -40 18z"/>
 <path d="M523 583 c9 -2 23 -2 30 0 6 3 -1 5 -18 5 -16 0 -22 -2 -12 -5z"/>
 <path d="M1373 583 c9 -2 23 -2 30 0 6 3 -1 5 -18 5 -16 0 -22 -2 -12 -5z"/>
 <path d="M483 573 c4 -3 10 -3 14 0 3 4 0 7 -7 7 -7 0 -10 -3 -7 -7z"/>
 <path d="M573 573 c4 -3 10 -3 14 0 3 4 0 7 -7 7 -7 0 -10 -3 -7 -7z"/>
 <path d="M1333 573 c4 -3 10 -3 14 0 3 4 0 7 -7 7 -7 0 -10 -3 -7 -7z"/>
 <path d="M1420 576 c0 -2 9 -6 20 -9 11 -3 18 -1 14 4 -5 9 -34 13 -34 5z"/>
 <path d="M603 563 c4 -3 10 -3 14 0 3 4 0 7 -7 7 -7 0 -10 -3 -7 -7z"/>
 <path d="M1253 563 c4 -3 10 -3 14 0 3 4 0 7 -7 7 -7 0 -10 -3 -7 -7z"/>
 <path d="M1290 560 c-8 -5 -10 -10 -5 -10 6 0 17 5 25 10 8 5 11 10 5 10 -5 0 -17 -5 -25 -10z"/>
 <path d="M646 547 c10 -5 24 -5 36 0 17 7 14 9 -16 9 -27 0 -32 -2 -20 -9z"/>
 <path d="M1470 550 c0 -7 3 -10 7 -7 3 4 3 10 0 14 -4 3 -7 0 -7 -7z"/>
 <path d="M443 543 c4 -3 10 -3 14 0 3 4 0 7 -7 7 -7 0 -10 -3 -7 -7z"/>
 <path d="M748 543 c7 -3 16 -2 19 1 4 3 -2 6 -13 5 -11 0 -14 -3 -6 -6z"/>
 <path d="M1190 540 c-13 -8 -12 -10 3 -10 9 0 17 5 17 10 0 12 -1 12 -20 0z"/>
 <path d="M1253 543 c4 -3 10 -3 14 0 3 4 0 7 -7 7 -7 0 -10 -3 -7 -7z"/>
 <path d="M498 533 c7 -3 16 -2 19 1 4 3 -2 6 -13 5 -11 0 -14 -3 -6 -6z"/>
 <path d="M1418 533 c7 -3 16 -2 19 1 4 3 -2 6 -13 5 -11 0 -14 -3 -6 -6z"/>
 <path d="M308 523 c7 -3 16 -2 19 1 4 3 -2 6 -13 5 -11 0 -14 -3 -6 -6z"/>
 <path d="M393 523 c9 -2 25 -2 35 0 9 3 1 5 -18 5 -19 0 -27 -2 -17 -5z"/>
 <path d="M548 523 c7 -3 16 -2 19 1 4 3 -2 6 -13 5 -11 0 -14 -3 -6 -6z"/>
 <path d="M1358 523 c7 -3 16 -2 19 1 4 3 -2 6 -13 5 -11 0 -14 -3 -6 -6z"/>
 <path d="M1503 523 c9 -2 25 -2 35 0 9 3 1 5 -18 5 -19 0 -27 -2 -17 -5z"/>
 <path d="M1612 520 c14 -4 32 -11 40 -15 7 -3 4 1 -6 9 -11 9 -29 16 -40 15 -17 -1 -16 -2 6 -9z"/>
 <path d="M262 508 c-15 -15 -15 -28 -1 -28 5 0 8 4 4 9 -3 6 3 14 12 20 10 6 13 11 8 11 -6 0 -16 -5 -23 -12z"/>
 <path d="M463 513 c9 -2 25 -2 35 0 9 3 1 5 -18 5 -19 0 -27 -2 -17 -5z"/>
 <path d="M613 513 c9 -2 23 -2 30 0 6 3 -1 5 -18 5 -16 0 -22 -2 -12 -5z"/>
 <path d="M1283 513 c9 -2 23 -2 30 0 6 3 -1 5 -18 5 -16 0 -22 -2 -12 -5z"/>
 <path d="M1423 513 c9 -2 25 -2 35 0 9 3 1 5 -18 5 -19 0 -27 -2 -17 -5z"/>
 <path d="M543 503 c9 -2 23 -2 30 0 6 3 -1 5 -18 5 -16 0 -22 -2 -12 -5z"/>
 <path d="M1353 503 c9 -2 25 -2 35 0 9 3 1 5 -18 5 -19 0 -27 -2 -17 -5z"/>
 <path d="M613 493 c9 -2 25 -2 35 0 9 3 1 5 -18 5 -19 0 -27 -2 -17 -5z"/>
 <path d="M695 490 c-16 -7 -13 -9 17 -9 20 -1 40 -6 44 -13 4 -6 3 -8 -4 -4 -6 3 -13 2 -17 -4 -3 -5 -18 -11 -33 -11 -18 -1 -21 -3 -9 -6 10 -3 25 -2 33 1 8 3 16 4 18 3 1 -1 11 4 20 12 15 13 19 13 27 0 7 -12 9 -11 9 2 0 10 -11 20 -27 23 -16 4 -35 9 -43 11 -8 2 -24 0 -35 -5z"/>
 <path d="M1283 493 c9 -2 23 -2 30 0 6 3 -1 5 -18 5 -16 0 -22 -2 -12 -5z"/>
 <path d="M1658 483 c7 -3 16 -2 19 1 4 3 -2 6 -13 5 -11 0 -14 -3 -6 -6z"/>
 <path d="M343 473 c9 -2 25 -2 35 0 9 3 1 5 -18 5 -19 0 -27 -2 -17 -5z"/>
 <path d="M1553 473 c9 -2 25 -2 35 0 9 3 1 5 -18 5 -19 0 -27 -2 -17 -5z"/>
 <path d="M203 463 c15 -2 37 -2 50 0 12 2 0 4 -28 4 -27 0 -38 -2 -22 -4z"/>
 <path d="M453 463 c9 -2 25 -2 35 0 9 3 1 5 -18 5 -19 0 -27 -2 -17 -5z"/>
 <path d="M823 463 c4 -3 10 -3 14 0 3 4 0 7 -7 7 -7 0 -10 -3 -7 -7z"/>
 <path d="M1083 463 c4 -3 10 -3 14 0 3 4 0 7 -7 7 -7 0 -10 -3 -7 -7z"/>
 <path d="M1433 463 c9 -2 25 -2 35 0 9 3 1 5 -18 5 -19 0 -27 -2 -17 -5z"/>
 <path d="M1673 463 c15 -2 37 -2 50 0 12 2 0 4 -28 4 -27 0 -38 -2 -22 -4z"/>
 <path d="M333 453 c15 -2 39 -2 55 0 15 2 2 4 -28 4 -30 0 -43 -2 -27 -4z"/>
 <path d="M573 453 c9 -2 25 -2 35 0 9 3 1 5 -18 5 -19 0 -27 -2 -17 -5z"/>
 <path d="M860 450 c12 -8 10 -14 -14 -39 -16 -17 -34 -29 -39 -28 -6 1 -13 -6 -15 -16 -3 -15 1 -18 20 -15 12 2 22 8 21 14 -1 6 11 24 27 39 21 20 30 24 30 14 0 -8 -6 -21 -12 -29 -11 -12 -10 -12 3 -2 9 6 19 9 22 5 4 -3 7 1 7 10 0 18 -38 57 -54 57 -6 0 -4 -5 4 -10z"/>
 <path d="M1032 440 c-23 -21 -30 -50 -12 -50 6 0 10 10 10 22 0 20 2 20 35 -12 19 -18 32 -36 30 -41 -3 -4 2 -9 10 -13 23 -8 27 11 10 44 -8 16 -18 30 -21 30 -2 0 0 -10 7 -22 9 -18 3 -15 -22 10 -28 27 -32 34 -19 42 8 5 10 10 4 10 -5 0 -20 -9 -32 -20z"/>
 <path d="M1313 453 c9 -2 25 -2 35 0 9 3 1 5 -18 5 -19 0 -27 -2 -17 -5z"/>
 <path d="M1543 453 c15 -2 39 -2 55 0 15 2 2 4 -28 4 -30 0 -43 -2 -27 -4z"/>
 <path d="M1750 456 c0 -2 7 -7 16 -10 8 -3 12 -2 9 4 -6 10 -25 14 -25 6z"/>
 <path d="M121 424 c-11 -15 -18 -30 -15 -35 3 -5 151 -9 329 -9 l324 0 11 23 c10 20 10 20 -3 4 -13 -16 -39 -17 -337 -15 l-322 3 22 28 c12 15 19 27 16 27 -2 0 -14 -12 -25 -26z"/>
 <path d="M463 443 c15 -2 39 -2 55 0 15 2 2 4 -28 4 -30 0 -43 -2 -27 -4z"/>
 <path d="M821 423 c-10 -26 -10 -27 4 -9 8 11 15 23 15 28 0 15 -7 8 -19 -19z"/>
 <path d="M1403 443 c15 -2 39 -2 55 0 15 2 2 4 -28 4 -30 0 -43 -2 -27 -4z"/>
 <path d="M603 433 c15 -2 37 -2 50 0 12 2 0 4 -28 4 -27 0 -38 -2 -22 -4z"/>
 <path d="M1273 433 c15 -2 37 -2 50 0 12 2 0 4 -28 4 -27 0 -38 -2 -22 -4z"/>
 <path d="M1193 423 c4 -3 10 -3 14 0 3 4 0 7 -7 7 -7 0 -10 -3 -7 -7z"/>
 <path d="M1156 396 c6 -14 39 -16 329 -16 178 0 326 3 328 8 3 4 -139 6 -315 4 -233 -2 -324 1 -334 9 -12 10 -13 9 -8 -5z"/>
 <path d="M911 364 c0 -11 3 -14 6 -6 3 7 2 16 -1 19 -3 4 -6 -2 -5 -13z"/>
 <path d="M996 354 c-4 -14 -5 -28 -3 -31 3 -2 8 8 11 23 4 14 5 28 3 31 -3 2 -8 -8 -11 -23z"/>
 <path d="M1065 370 c3 -5 8 -10 11 -10 3 0 2 5 -1 10 -3 6 -8 10 -11 10 -3 0 -2 -4 1 -10z"/>
 <path d="M920 330 c0 -7 3 -10 7 -7 3 4 3 10 0 14 -4 3 -7 0 -7 -7z"/>
 <path d="M931 294 c0 -11 3 -14 6 -6 3 7 2 16 -1 19 -3 4 -6 -2 -5 -13z"/>
 <path d="M981 294 c0 -11 3 -14 6 -6 3 7 2 16 -1 19 -3 4 -6 -2 -5 -13z"/>
 </g>
<g id="layer105" fill="#cdcdcd" stroke="none">
 <path d="M948 778 c9 -9 15 -9 24 0 9 9 7 12 -12 12 -19 0 -21 -3 -12 -12z"/>
 <path d="M950 650 l0 -112 -72 62 -73 62 68 -64 c38 -35 65 -67 61 -71 -4 -4 -62 -6 -128 -6 -67 1 -113 3 -103 6 9 2 17 8 17 13 0 4 -10 6 -22 2 -14 -3 -19 -1 -14 6 5 8 1 10 -9 5 -13 -5 -14 -7 -3 -14 7 -5 9 -9 4 -9 -6 0 -5 -5 1 -11 17 -17 252 -12 270 6 7 8 19 12 26 9 7 -2 24 8 37 23 l25 28 -26 -22 c-14 -13 -28 -23 -32 -23 -4 0 -7 47 -7 104 0 59 -4 108 -10 111 -6 4 -10 -34 -10 -105z"/>
 <path d="M920 710 c0 -7 3 -10 7 -7 3 4 3 10 0 14 -4 3 -7 0 -7 -7z"/>
 <path d="M990 710 c0 -7 3 -10 7 -7 3 4 3 10 0 14 -4 3 -7 0 -7 -7z"/>
 <path d="M794 678 c-4 -7 -3 -8 4 -4 7 4 12 9 12 12 0 8 -9 4 -16 -8z"/>
 <path d="M1117 669 c4 -13 8 -18 11 -10 2 7 -1 18 -6 23 -8 8 -9 4 -5 -13z"/>
 <path d="M910 670 c0 -7 3 -10 7 -7 3 4 3 10 0 14 -4 3 -7 0 -7 -7z"/>
 <path d="M1000 670 c0 -7 3 -10 7 -7 3 4 3 10 0 14 -4 3 -7 0 -7 -7z"/>
 <path d="M1059 624 c-21 -23 -26 -33 -14 -26 25 12 60 50 53 57 -2 3 -20 -12 -39 -31z"/>
 <path d="M1013 633 c4 -3 10 -3 14 0 3 4 0 7 -7 7 -7 0 -10 -3 -7 -7z"/>
 <path d="M605 599 c-11 -16 -1 -19 13 -3 7 8 8 14 3 14 -5 0 -13 -5 -16 -11z"/>
 <path d="M1293 603 c4 -3 10 -3 14 0 3 4 0 7 -7 7 -7 0 -10 -3 -7 -7z"/>
 <path d="M523 583 c9 -2 23 -2 30 0 6 3 -1 5 -18 5 -16 0 -22 -2 -12 -5z"/>
 <path d="M835 580 c3 -5 8 -10 11 -10 3 0 2 5 -1 10 -3 6 -8 10 -11 10 -3 0 -2 -4 1 -10z"/>
 <path d="M1373 583 c9 -2 23 -2 30 0 6 3 -1 5 -18 5 -16 0 -22 -2 -12 -5z"/>
 <path d="M1077 569 c7 -7 15 -10 18 -7 3 3 -2 9 -12 12 -14 6 -15 5 -6 -5z"/>
 <path d="M1144 568 c-4 -7 -3 -8 4 -4 7 4 12 9 12 12 0 8 -9 4 -16 -8z"/>
 <path d="M1433 573 c4 -3 10 -3 14 0 3 4 0 7 -7 7 -7 0 -10 -3 -7 -7z"/>
 <path d="M813 563 c4 -3 10 -3 14 0 3 4 0 7 -7 7 -7 0 -10 -3 -7 -7z"/>
 <path d="M1303 563 c4 -3 10 -3 14 0 3 4 0 7 -7 7 -7 0 -10 -3 -7 -7z"/>
 <path d="M1470 550 c0 -7 3 -10 7 -7 3 4 3 10 0 14 -4 3 -7 0 -7 -7z"/>
 <path d="M1195 540 c-3 -5 -1 -10 4 -10 6 0 11 5 11 10 0 6 -2 10 -4 10 -3 0 -8 -4 -11 -10z"/>
 <path d="M1225 530 c-4 -6 -55 -10 -125 -10 -68 0 -121 -4 -125 -10 -3 -5 -14 -10 -24 -10 -10 0 -28 -11 -41 -25 -13 -14 -19 -25 -13 -25 5 0 18 9 28 20 10 11 26 20 35 20 9 0 25 -9 35 -20 10 -11 23 -20 28 -20 6 0 -2 14 -19 31 l-29 31 132 -4 c98 -2 134 0 137 9 6 16 -10 27 -19 13z"/>
 <path d="M1423 533 c4 -3 10 -3 14 0 3 4 0 7 -7 7 -7 0 -10 -3 -7 -7z"/>
 <path d="M303 523 c4 -3 10 -3 14 0 3 4 0 7 -7 7 -7 0 -10 -3 -7 -7z"/>
 <path d="M408 523 c6 -2 18 -2 25 0 6 3 1 5 -13 5 -14 0 -19 -2 -12 -5z"/>
 <path d="M543 523 c4 -3 10 -3 14 0 3 4 0 7 -7 7 -7 0 -10 -3 -7 -7z"/>
 <path d="M1363 523 c4 -3 10 -3 14 0 3 4 0 7 -7 7 -7 0 -10 -3 -7 -7z"/>
 <path d="M1498 523 c6 -2 18 -2 25 0 6 3 1 5 -13 5 -14 0 -19 -2 -12 -5z"/>
 <path d="M1613 523 c4 -3 10 -3 14 0 3 4 0 7 -7 7 -7 0 -10 -3 -7 -7z"/>
 <path d="M264 508 c-4 -7 -3 -8 4 -4 12 7 16 16 8 16 -3 0 -8 -5 -12 -12z"/>
 <path d="M478 513 c6 -2 18 -2 25 0 6 3 1 5 -13 5 -14 0 -19 -2 -12 -5z"/>
 <path d="M603 513 c4 -3 10 -3 14 0 3 4 0 7 -7 7 -7 0 -10 -3 -7 -7z"/>
 <path d="M633 513 c4 -3 10 -3 14 0 3 4 0 7 -7 7 -7 0 -10 -3 -7 -7z"/>
 <path d="M1273 513 c4 -3 10 -3 14 0 3 4 0 7 -7 7 -7 0 -10 -3 -7 -7z"/>
 <path d="M1303 513 c4 -3 10 -3 14 0 3 4 0 7 -7 7 -7 0 -10 -3 -7 -7z"/>
 <path d="M1418 513 c6 -2 18 -2 25 0 6 3 1 5 -13 5 -14 0 -19 -2 -12 -5z"/>
 <path d="M558 503 c7 -3 16 -2 19 1 4 3 -2 6 -13 5 -11 0 -14 -3 -6 -6z"/>
 <path d="M1348 503 c6 -2 18 -2 25 0 6 3 1 5 -13 5 -14 0 -19 -2 -12 -5z"/>
 <path d="M628 493 c6 -2 18 -2 25 0 6 3 1 5 -13 5 -14 0 -19 -2 -12 -5z"/>
 <path d="M705 490 c-3 -5 1 -10 10 -10 9 0 13 5 10 10 -3 6 -8 10 -10 10 -2 0 -7 -4 -10 -10z"/>
 <path d="M1195 490 c-4 -6 3 -10 14 -10 25 0 27 6 6 13 -8 4 -17 2 -20 -3z"/>
 <path d="M1278 493 c7 -3 16 -2 19 1 4 3 -2 6 -13 5 -11 0 -14 -3 -6 -6z"/>
 <path d="M338 473 c7 -3 16 -2 19 1 4 3 -2 6 -13 5 -11 0 -14 -3 -6 -6z"/>
 <path d="M950 380 c0 -60 4 -100 10 -100 6 0 10 40 10 100 0 60 -4 100 -10 100 -6 0 -10 -40 -10 -100z"/>
 <path d="M1169 467 c6 -8 9 -16 6 -19 -3 -2 2 -5 10 -5 13 0 13 3 -2 19 -19 21 -31 25 -14 5z"/>
 <path d="M1568 473 c6 -2 18 -2 25 0 6 3 1 5 -13 5 -14 0 -19 -2 -12 -5z"/>
 <path d="M203 463 c15 -2 37 -2 50 0 12 2 0 4 -28 4 -27 0 -38 -2 -22 -4z"/>
 <path d="M448 463 c6 -2 18 -2 25 0 6 3 1 5 -13 5 -14 0 -19 -2 -12 -5z"/>
 <path d="M1448 463 c6 -2 18 -2 25 0 6 3 1 5 -13 5 -14 0 -19 -2 -12 -5z"/>
 <path d="M1673 463 c15 -2 37 -2 50 0 12 2 0 4 -28 4 -27 0 -38 -2 -22 -4z"/>
 <path d="M358 453 c12 -2 30 -2 40 0 9 3 -1 5 -23 4 -22 0 -30 -2 -17 -4z"/>
 <path d="M568 453 c7 -3 16 -2 19 1 4 3 -2 6 -13 5 -11 0 -14 -3 -6 -6z"/>
 <path d="M1338 453 c7 -3 16 -2 19 1 4 3 -2 6 -13 5 -11 0 -14 -3 -6 -6z"/>
 <path d="M1533 453 c9 -2 25 -2 35 0 9 3 1 5 -18 5 -19 0 -27 -2 -17 -5z"/>
 <path d="M488 443 c12 -2 30 -2 40 0 9 3 -1 5 -23 4 -22 0 -30 -2 -17 -4z"/>
 <path d="M688 443 c7 -3 16 -2 19 1 4 3 -2 6 -13 5 -11 0 -14 -3 -6 -6z"/>
 <path d="M875 440 c3 -5 8 -10 11 -10 3 0 2 5 -1 10 -3 6 -8 10 -11 10 -3 0 -2 -4 1 -10z"/>
 <path d="M1218 443 c7 -3 16 -2 19 1 4 3 -2 6 -13 5 -11 0 -14 -3 -6 -6z"/>
 <path d="M1398 443 c12 -2 30 -2 40 0 9 3 -1 5 -23 4 -22 0 -30 -2 -17 -4z"/>
 <path d="M633 433 c9 -2 23 -2 30 0 6 3 -1 5 -18 5 -16 0 -22 -2 -12 -5z"/>
 <path d="M1030 437 c0 -2 15 -16 33 -33 l32 -29 -29 33 c-28 30 -36 37 -36 29z"/>
 <path d="M1263 433 c9 -2 25 -2 35 0 9 3 1 5 -18 5 -19 0 -27 -2 -17 -5z"/>
 <path d="M839 403 l-24 -28 28 24 c25 23 32 31 24 31 -2 0 -14 -12 -28 -27z"/>
 <path d="M107 388 c2 -5 150 -8 328 -8 178 0 326 3 328 8 3 4 -145 7 -328 7 -183 0 -331 -3 -328 -7z"/>
 <path d="M1013 393 c4 -3 10 -3 14 0 3 4 0 7 -7 7 -7 0 -10 -3 -7 -7z"/>
 <path d="M1318 383 c89 -2 235 -2 325 0 89 1 16 3 -163 3 -179 0 -252 -2 -162 -3z"/>
 <path d="M790 365 c0 -8 4 -15 10 -15 5 0 7 7 4 15 -4 8 -8 15 -10 15 -2 0 -4 -7 -4 -15z"/>
 <path d="M910 360 c0 -7 3 -10 7 -7 3 4 3 10 0 14 -4 3 -7 0 -7 -7z"/>
 <path d="M1000 360 c0 -7 3 -10 7 -7 3 4 3 10 0 14 -4 3 -7 0 -7 -7z"/>
 <path d="M1117 363 c-4 -3 -7 -11 -7 -17 0 -6 5 -5 12 2 6 6 9 14 7 17 -3 3 -9 2 -12 -2z"/>
 <path d="M930 290 c0 -7 3 -10 7 -7 3 4 3 10 0 14 -4 3 -7 0 -7 -7z"/>
 <path d="M980 290 c0 -7 3 -10 7 -7 3 4 3 10 0 14 -4 3 -7 0 -7 -7z"/>
 <path d="M940 250 c0 -5 9 -10 21 -10 11 0 17 5 14 10 -3 6 -13 10 -21 10 -8 0 -14 -4 -14 -10z"/>
 </g>

</svg>