<?xml version="1.0" encoding="UTF-8"?>
<!DOCTYPE svg PUBLIC "-//W3C//DTD SVG 1.1//EN" "http://www.w3.org/Graphics/SVG/1.1/DTD/svg11.dtd">
<!-- Creator: CorelDRAW 2018 (64-Bit) -->
<svg xmlns="http://www.w3.org/2000/svg" xml:space="preserve" width="5.5989mm" height="5.5989mm" version="1.1" style="shape-rendering:geometricPrecision; text-rendering:geometricPrecision; image-rendering:optimizeQuality; fill-rule:evenodd; clip-rule:evenodd"
viewBox="0 0 11.77 11.77"
 xmlns:xlink="http://www.w3.org/1999/xlink">
 <g id="Слой_x0020_1">
  <metadata id="CorelCorpID_0Corel-Layer"/>
  <g fill="white" id="_3075652043072">
   <path class="fil0" d="M7.01 5.88c0,0.62 -0.5,1.13 -1.13,1.13 -0.62,0 -1.13,-0.5 -1.13,-1.13 0,-0.62 0.5,-1.13 1.13,-1.13 0.62,0 1.13,0.5 1.13,1.13z"/>
   <path class="fil0" d="M8.52 3.89c-0.05,-0.15 -0.14,-0.28 -0.25,-0.39 -0.11,-0.11 -0.24,-0.2 -0.39,-0.25 -0.12,-0.05 -0.3,-0.1 -0.63,-0.12 -0.36,-0.02 -0.46,-0.02 -1.37,-0.02 -0.9,0 -1.01,0 -1.37,0.02 -0.33,0.02 -0.51,0.07 -0.63,0.12 -0.15,0.05 -0.28,0.14 -0.39,0.25 -0.11,0.11 -0.2,0.24 -0.25,0.39 -0.05,0.12 -0.1,0.3 -0.12,0.63 -0.02,0.36 -0.02,0.46 -0.02,1.37 0,0.9 0,1.01 0.02,1.36 0.02,0.33 0.07,0.51 0.12,0.63 0.05,0.15 0.14,0.28 0.25,0.39 0.11,0.11 0.24,0.2 0.39,0.25 0.12,0.05 0.3,0.1 0.63,0.12 0.36,0.02 0.46,0.02 1.37,0.02 0.9,0 1.01,-0 1.37,-0.02 0.33,-0.01 0.51,-0.07 0.63,-0.12 0.29,-0.11 0.53,-0.35 0.64,-0.64 0.05,-0.12 0.1,-0.3 0.12,-0.63 0.02,-0.36 0.02,-0.46 0.02,-1.36 0,-0.9 -0,-1.01 -0.02,-1.37 -0.01,-0.33 -0.07,-0.51 -0.12,-0.63zm-2.63 3.73c-0.96,0 -1.73,-0.78 -1.73,-1.73 0,-0.96 0.78,-1.73 1.73,-1.73 0.96,0 1.73,0.78 1.73,1.73 0,0.96 -0.78,1.73 -1.73,1.73zm1.8 -3.13c-0.22,0 -0.41,-0.18 -0.41,-0.41 0,-0.22 0.18,-0.41 0.41,-0.41 0.22,0 0.41,0.18 0.41,0.41 0,0.22 -0.18,0.41 -0.41,0.41z"/>
   <path class="fil0" d="M5.88 0c-3.25,0 -5.88,2.63 -5.88,5.88 0,3.25 2.63,5.88 5.88,5.88 3.25,0 5.88,-2.63 5.88,-5.88 0,-3.25 -2.63,-5.88 -5.88,-5.88zm3.36 7.28c-0.02,0.36 -0.07,0.6 -0.16,0.82 -0.18,0.45 -0.53,0.81 -0.99,0.99 -0.21,0.08 -0.46,0.14 -0.82,0.16 -0.36,0.02 -0.48,0.02 -1.39,0.02 -0.92,0 -1.03,-0 -1.39,-0.02 -0.36,-0.02 -0.61,-0.07 -0.82,-0.16 -0.23,-0.08 -0.43,-0.22 -0.6,-0.39 -0.17,-0.17 -0.3,-0.37 -0.39,-0.6 -0.08,-0.21 -0.14,-0.46 -0.16,-0.82 -0.02,-0.36 -0.02,-0.48 -0.02,-1.39 0,-0.92 0,-1.03 0.02,-1.39 0.02,-0.36 0.07,-0.61 0.16,-0.82 0.08,-0.23 0.22,-0.43 0.39,-0.6 0.17,-0.17 0.37,-0.3 0.6,-0.39 0.21,-0.08 0.46,-0.14 0.82,-0.16 0.36,-0.02 0.48,-0.02 1.39,-0.02 0.92,0 1.03,0 1.39,0.02 0.36,0.02 0.6,0.07 0.82,0.16 0.23,0.08 0.43,0.22 0.6,0.39 0.17,0.17 0.3,0.37 0.39,0.6 0.08,0.21 0.14,0.46 0.16,0.82 0.02,0.36 0.02,0.48 0.02,1.39 0,0.92 -0,1.03 -0.02,1.39z"/>
  </g>
 </g>
</svg>
