<svg width="26" height="26" viewBox="0 0 26 26" fill="none" xmlns="http://www.w3.org/2000/svg">
<mask id="path-1-inside-1" fill="white">
<path d="M20.1649 25.5307C19.1247 25.5307 17.8685 25.27 16.4869 24.7487C13.4581 23.6067 10.1627 21.3498 7.20788 18.395C4.25222 15.4393 1.99531 12.1431 0.852565 9.1143C-0.185913 6.36044 -0.188436 4.10017 0.846679 3.0659C0.995514 2.91706 1.14687 2.7573 1.30327 2.59249C2.24757 1.59942 3.31464 0.481896 4.72899 0.532348C5.70356 0.57271 6.64786 1.17814 7.61487 2.38143C10.4722 5.93496 9.18394 7.20131 7.69307 8.66948L7.42988 8.93015C7.18602 9.174 6.72522 10.3033 11.012 14.5901C12.4112 15.9893 13.6044 17.0135 14.558 17.6332C15.1583 18.0234 16.2321 18.6136 16.6728 18.173L16.9376 17.9056C18.4041 16.4181 19.6705 15.1341 23.2215 17.9889C24.4248 18.9559 25.0294 19.8993 25.0697 20.8756C25.1277 22.2891 24.0018 23.3587 23.0079 24.3022C22.8439 24.4586 22.6842 24.6099 22.5353 24.7579C22.0215 25.2725 21.2 25.5307 20.1649 25.5307ZM4.62809 1.37154C3.62324 1.37154 2.71594 2.32677 1.91291 3.17185C1.75146 3.34171 1.59506 3.50652 1.44118 3.6604C0.670096 4.43064 0.748297 6.45462 1.63962 8.81831C2.74117 11.7378 4.92996 14.9281 7.80322 17.8014C10.6756 20.6729 13.8642 22.8617 16.7846 23.9624C19.1483 24.8554 21.1723 24.9311 21.9417 24.1617C22.0955 24.0078 22.2604 23.8514 22.4302 23.6908C23.2938 22.8701 24.2734 21.9401 24.2305 20.9084C24.2011 20.1995 23.6848 19.4369 22.6959 18.6422C19.7369 16.2626 18.9095 17.1026 17.5372 18.4942L17.2681 18.7658C16.6122 19.4226 15.5468 19.2771 14.1005 18.337C13.0974 17.6845 11.8579 16.6233 10.4183 15.1829C6.8606 11.626 5.7229 9.44897 6.83622 8.33313L7.10446 8.06825C8.49947 6.69595 9.34118 5.86769 6.96067 2.90697C6.16436 1.91895 5.40253 1.40265 4.69367 1.37238C4.67181 1.37154 4.64995 1.37154 4.62809 1.37154Z"/>
</mask>
<path d="M16.4869 24.7487L16.84 23.8131L16.8397 23.8129L16.4869 24.7487ZM0.852565 9.1143L-0.0831167 9.46714L-0.0830576 9.4673L0.852565 9.1143ZM0.846679 3.0659L1.5535 3.77329L1.55379 3.77301L0.846679 3.0659ZM1.30327 2.59249L0.578595 1.9034L0.577904 1.90413L1.30327 2.59249ZM4.72899 0.532348L4.77037 -0.466811L4.76464 -0.467016L4.72899 0.532348ZM7.61487 2.38143L6.83538 3.00785L6.83555 3.00806L7.61487 2.38143ZM7.69307 8.66948L6.9914 7.95696L6.98937 7.95898L7.69307 8.66948ZM7.42988 8.93015L6.72617 8.21964L6.72277 8.22304L7.42988 8.93015ZM14.558 17.6332L14.013 18.4717L14.0131 18.4717L14.558 17.6332ZM16.6728 18.173L17.3799 18.8801L17.3832 18.8768L16.6728 18.173ZM16.9376 17.9056L17.6481 18.6094L17.6497 18.6077L16.9376 17.9056ZM23.2215 17.9889L22.5949 18.7682L22.5951 18.7684L23.2215 17.9889ZM25.0697 20.8756L26.0689 20.8346L26.0689 20.8343L25.0697 20.8756ZM23.0079 24.3022L22.3194 23.5769L22.3177 23.5785L23.0079 24.3022ZM22.5353 24.7579L21.8302 24.0488L21.8276 24.0514L22.5353 24.7579ZM1.91291 3.17185L2.63773 3.86079L2.63782 3.86069L1.91291 3.17185ZM1.44118 3.6604L2.1479 4.36789L2.14828 4.3675L1.44118 3.6604ZM1.63962 8.81831L0.703938 9.17115L0.704004 9.17133L1.63962 8.81831ZM7.80322 17.8014L7.09612 18.5085L7.09622 18.5086L7.80322 17.8014ZM16.7846 23.9624L17.138 23.027L17.1373 23.0267L16.7846 23.9624ZM21.9417 24.1617L21.2346 23.4546L21.9417 24.1617ZM22.4302 23.6908L23.1173 24.4175L23.1191 24.4157L22.4302 23.6908ZM24.2305 20.9084L23.2314 20.9499L23.2314 20.9499L24.2305 20.9084ZM22.6959 18.6422L22.0692 19.4215L22.0695 19.4217L22.6959 18.6422ZM17.5372 18.4942L18.2476 19.198L18.2492 19.1964L17.5372 18.4942ZM17.2681 18.7658L17.9757 19.4725L17.9785 19.4696L17.2681 18.7658ZM14.1005 18.337L13.5553 19.1753L13.5555 19.1754L14.1005 18.337ZM10.4183 15.1829L11.1257 14.476L11.1254 14.4757L10.4183 15.1829ZM6.83622 8.33313L6.13357 7.62156L6.12831 7.62682L6.83622 8.33313ZM7.10446 8.06825L6.40317 7.35537L6.40183 7.3567L7.10446 8.06825ZM6.96067 2.90697L7.74 2.28036L7.73927 2.27945L6.96067 2.90697ZM4.69367 1.37238L4.73634 0.373282L4.73211 0.37312L4.69367 1.37238ZM20.1649 24.5307C19.2802 24.5307 18.1467 24.3061 16.84 23.8131L16.1339 25.6843C17.5903 26.2338 18.9693 26.5307 20.1649 26.5307V24.5307ZM16.8397 23.8129C13.9767 22.7336 10.7975 20.5704 7.91499 17.6879L6.50078 19.1021C9.52796 22.1293 12.9395 24.4799 16.1341 25.6844L16.8397 23.8129ZM7.91499 17.6879C5.03175 14.8047 2.86846 11.6245 1.78819 8.7613L-0.0830576 9.4673C1.12217 12.6617 3.47268 16.074 6.50078 19.1021L7.91499 17.6879ZM1.78825 8.76146C1.29724 7.4594 1.07292 6.32813 1.07202 5.44424C1.07111 4.54406 1.29803 4.02855 1.5535 3.77329L0.13986 2.35851C-0.639786 3.13752 -0.929166 4.26928 -0.927975 5.44627C-0.926767 6.63954 -0.630593 8.01534 -0.0831166 9.46714L1.78825 8.76146ZM1.55379 3.77301C1.71373 3.61307 1.87471 3.44305 2.02864 3.28085L0.577904 1.90413C0.419028 2.07155 0.277301 2.22106 0.139572 2.35879L1.55379 3.77301ZM2.02795 3.28158C2.51274 2.77175 2.94932 2.31853 3.41731 1.98753C3.87017 1.66723 4.27762 1.51688 4.69334 1.53171L4.76464 -0.467016C3.76601 -0.502639 2.93275 -0.119448 2.26242 0.354667C1.60721 0.818081 1.03811 1.42016 0.578596 1.9034L2.02795 3.28158ZM4.68761 1.53149C5.24135 1.55442 5.9449 1.89978 6.83538 3.00785L8.39435 1.75501C7.35083 0.456502 6.16578 -0.409004 4.77037 -0.466795L4.68761 1.53149ZM6.83555 3.00806C8.21458 4.72312 8.37926 5.63641 8.29711 6.14931C8.20717 6.71085 7.79497 7.16564 6.99141 7.95697L8.39473 9.38199C9.08203 8.70515 10.0594 7.79268 10.2719 6.46562C10.4923 5.08992 9.87244 3.59326 8.39419 1.7548L6.83555 3.00806ZM6.98937 7.95898L6.72618 8.21965L8.13357 9.64065L8.39676 9.37998L6.98937 7.95898ZM6.72277 8.22304C6.48344 8.46237 6.30799 8.81395 6.28516 9.26388C6.26374 9.68604 6.37779 10.1493 6.61337 10.6617C7.07908 11.6747 8.13762 13.1299 10.3049 15.2972L11.7191 13.883C9.5996 11.7635 8.74515 10.5106 8.43053 9.8263C8.27595 9.49007 8.28299 9.35736 8.28259 9.36524C8.28078 9.40088 8.25438 9.51986 8.13698 9.63726L6.72277 8.22304ZM10.3049 15.2972C11.7229 16.7152 12.9734 17.796 14.013 18.4717L15.1029 16.7947C14.2354 16.2309 13.0995 15.2634 11.7191 13.883L10.3049 15.2972ZM14.0131 18.4717C14.3336 18.68 14.8305 18.9762 15.3412 19.1572C15.5949 19.2471 15.9112 19.3304 16.2439 19.3294C16.5877 19.3284 17.0264 19.2336 17.3799 18.8801L15.9656 17.4659C16.026 17.4056 16.0939 17.3678 16.1517 17.3478C16.1787 17.3384 16.2005 17.3338 16.2149 17.3317C16.2292 17.3295 16.2373 17.3294 16.2378 17.3294C16.2384 17.3294 16.2333 17.3295 16.2218 17.3282C16.2105 17.3269 16.1945 17.3244 16.1737 17.32C16.1311 17.3111 16.0763 17.2958 16.0093 17.2721C15.7229 17.1706 15.3827 16.9766 15.1029 16.7947L14.0131 18.4717ZM17.3832 18.8768L17.6481 18.6094L16.2272 17.2019L15.9623 17.4693L17.3832 18.8768ZM17.6497 18.6077C18.4398 17.8063 18.8941 17.3957 19.4549 17.3065C19.9679 17.2249 20.8811 17.3904 22.5949 18.7682L23.848 17.2095C22.0109 15.7326 20.5154 15.1127 19.1408 15.3313C17.8141 15.5423 16.9019 16.5174 16.2255 17.2036L17.6497 18.6077ZM22.5951 18.7684C23.7027 19.6585 24.0476 20.3612 24.0706 20.9169L26.0689 20.8343C26.0111 19.4375 25.1468 18.2532 23.8479 17.2094L22.5951 18.7684ZM24.0706 20.9166C24.0874 21.3281 23.9389 21.7335 23.6175 22.1868C23.2854 22.6551 22.8304 23.0919 22.3194 23.5769L23.6964 25.0274C24.1793 24.569 24.7842 23.9992 25.249 23.3435C25.7246 22.6727 26.11 21.8366 26.0689 20.8346L24.0706 20.9166ZM22.3177 23.5785C22.1579 23.7309 21.9884 23.8915 21.8302 24.0488L23.2404 25.467C23.3799 25.3283 23.5299 25.1862 23.6981 25.0258L22.3177 23.5785ZM21.8276 24.0514C21.5757 24.3038 21.0622 24.5307 20.1649 24.5307V26.5307C21.3378 26.5307 22.4674 26.2413 23.243 25.4644L21.8276 24.0514ZM4.62809 0.37154C3.80677 0.37154 3.11471 0.759289 2.58939 1.15889C2.06079 1.56099 1.57727 2.07335 1.188 2.48301L2.63782 3.86069C3.05158 3.42527 3.42323 3.03748 3.80024 2.75069C4.18054 2.46141 4.44456 2.37154 4.62809 2.37154V0.37154ZM1.18809 2.48291C1.02427 2.65526 0.877191 2.81017 0.73407 2.95329L2.14828 4.3675C2.31292 4.20287 2.47865 4.02815 2.63773 3.86079L1.18809 2.48291ZM0.734456 2.9529C0.046002 3.64061 -0.120007 4.70041 -0.0822618 5.6803C-0.0424487 6.71387 0.231797 7.91909 0.703938 9.17115L2.57531 8.46548C2.15612 7.35384 1.9456 6.36522 1.91626 5.60332C1.88484 4.78773 2.06527 4.45043 2.1479 4.36789L0.734456 2.9529ZM0.704004 9.17133C1.86841 12.2575 4.15143 15.5638 7.09612 18.5085L8.51033 17.0943C5.70849 14.2924 3.61392 11.2182 2.57524 8.4653L0.704004 9.17133ZM7.09622 18.5086C10.0399 21.4514 13.3446 23.7345 16.4319 24.8982L17.1373 23.0267C14.3839 21.9889 11.3114 19.8945 8.51023 17.0941L7.09622 18.5086ZM16.4312 24.8979C17.6837 25.3711 18.8891 25.6452 19.9227 25.6848C20.9026 25.7223 21.9617 25.5559 22.6488 24.8688L21.2346 23.4546C21.1523 23.5369 20.8147 23.7174 19.9993 23.6862C19.2376 23.6571 18.2492 23.4468 17.138 23.027L16.4312 24.8979ZM22.6488 24.8688C22.7914 24.7262 22.9466 24.5788 23.1173 24.4174L21.7432 22.9642C21.5741 23.1241 21.3997 23.2895 21.2346 23.4546L22.6488 24.8688ZM23.1191 24.4157C23.5371 24.0185 24.0634 23.5221 24.4707 22.9781C24.8764 22.4364 25.265 21.7179 25.2297 20.8669L23.2314 20.9499C23.2389 21.1306 23.1592 21.393 22.8698 21.7794C22.5822 22.1635 22.1869 22.5425 21.7413 22.966L23.1191 24.4157ZM25.2297 20.8669C25.1816 19.7099 24.3705 18.705 23.3223 17.8627L22.0695 19.4217C22.9991 20.1687 23.2206 20.6892 23.2314 20.9499L25.2297 20.8669ZM23.3226 17.863C21.8263 16.6596 20.5927 16.0235 19.4067 16.1606C18.8017 16.2306 18.3128 16.491 17.9066 16.7952C17.5179 17.0864 17.1537 17.4589 16.8251 17.7921L18.2492 19.1964C18.6068 18.8338 18.8607 18.5794 19.1055 18.396C19.3329 18.2257 19.4931 18.1639 19.6364 18.1474C19.9469 18.1115 20.6065 18.2452 22.0692 19.4215L23.3226 17.863ZM16.8268 17.7904L16.5577 18.062L17.9785 19.4696L18.2476 19.198L16.8268 17.7904ZM16.5605 18.0592C16.4897 18.1301 16.3893 18.1965 16.1152 18.1593C15.7953 18.1159 15.312 17.9318 14.6455 17.4986L13.5555 19.1754C14.3354 19.6823 15.1079 20.041 15.8463 20.1411C16.6304 20.2475 17.3906 20.0583 17.9757 19.4725L16.5605 18.0592ZM14.6458 17.4987C13.7275 16.9015 12.5449 15.896 11.1257 14.476L9.71103 15.8898C11.1709 17.3506 12.4672 18.4675 13.5553 19.1753L14.6458 17.4987ZM11.1254 14.4757C9.3611 12.7118 8.2781 11.3667 7.76181 10.3793C7.50496 9.88803 7.42857 9.55965 7.42584 9.3603C7.42366 9.20029 7.46515 9.11859 7.54413 9.03944L6.12831 7.62682C5.65063 8.10559 5.41684 8.71445 5.42603 9.38761C5.43469 10.0214 5.65633 10.6688 5.98946 11.306C6.65312 12.5752 7.91784 14.097 9.71132 15.8901L11.1254 14.4757ZM7.53885 9.04468L7.80709 8.77981L6.40183 7.3567L6.13359 7.62158L7.53885 9.04468ZM7.80574 8.78114C8.13986 8.45245 8.51314 8.08836 8.805 7.69957C9.10994 7.29335 9.37113 6.80434 9.44166 6.19901C9.57996 5.01212 8.94378 3.77754 7.74 2.28036L6.18133 3.53358C7.35807 4.99712 7.49128 5.65703 7.4551 5.96753C7.4384 6.11089 7.37637 6.27129 7.20554 6.49886C7.02163 6.74384 6.76656 6.9979 6.40318 7.35537L7.80574 8.78114ZM7.73927 2.27945C6.89592 1.23306 5.89236 0.422659 4.73634 0.373291L4.65101 2.37147C4.91269 2.38265 5.4328 2.60484 6.18207 3.53449L7.73927 2.27945ZM4.73211 0.37312C4.68784 0.371417 4.64675 0.37154 4.62809 0.37154V2.37154C4.63982 2.37154 4.64594 2.37155 4.65126 2.3716C4.65605 2.37164 4.65684 2.3717 4.65524 2.37164L4.73211 0.37312Z" fill="#FEED00" mask="url(#path-1-inside-1)"/>
</svg>
