<?xml version="1.0" encoding="UTF-8"?>
<!DOCTYPE svg PUBLIC "-//W3C//DTD SVG 1.1//EN" "http://www.w3.org/Graphics/SVG/1.1/DTD/svg11.dtd">
<!-- Creator: CorelDRAW 2018 (64-Bit) -->
<svg xmlns="http://www.w3.org/2000/svg" xml:space="preserve" width="5.0673mm" height="5.0673mm" version="1.1" style="shape-rendering:geometricPrecision; text-rendering:geometricPrecision; image-rendering:optimizeQuality; fill-rule:evenodd; clip-rule:evenodd"
viewBox="0 0 910.16 910.16"
 xmlns:xlink="http://www.w3.org/1999/xlink">
 <defs>
  <style type="text/css">
   <![CDATA[
    .fil0 {fill:#75B1D1;fill-rule:nonzero}
   ]]>
  </style>
 </defs>
 <g id="Слой_x0020_1">
  <metadata id="CorelCorpID_0Corel-Layer"/>
  <path class="fil0" d="M899.01 845.52l-218.81 -218.81c54.24,-66.12 86.93,-150.82 86.93,-243.14 0,-211.75 -171.82,-383.57 -383.57,-383.57 -211.93,0 -383.57,171.82 -383.57,383.57 0,211.75 171.64,383.57 383.57,383.57 92.32,0 176.83,-32.51 242.97,-86.74l218.81 218.61c7.36,7.38 16.99,11.1 26.62,11.15l0.43 0c9.63,-0.05 19.25,-3.77 26.62,-11.15 7.36,-7.26 11.08,-16.87 11.15,-26.48l0 -0.54c-0.07,-9.61 -3.79,-19.2 -11.15,-26.48zm-515.44 -154.72c-169.59,0 -307.41,-137.84 -307.41,-307.23 0,-169.41 137.82,-307.41 307.41,-307.41 169.39,0 307.41,138 307.41,307.41 0,169.39 -138.02,307.23 -307.41,307.23z"/>
 </g>
</svg>
