<?xml version="1.0" encoding="UTF-8"?>
<!DOCTYPE svg PUBLIC "-//W3C//DTD SVG 1.1//EN" "http://www.w3.org/Graphics/SVG/1.1/DTD/svg11.dtd">
<!-- Creator: CorelDRAW X8 -->
<svg xmlns="http://www.w3.org/2000/svg" xml:space="preserve" width="210mm" height="297mm" version="1.1" style="shape-rendering:geometricPrecision; text-rendering:geometricPrecision; image-rendering:optimizeQuality; fill-rule:evenodd; clip-rule:evenodd"
viewBox="0 0 21000 29700"
 xmlns:xlink="http://www.w3.org/1999/xlink">
 <defs>
  <style type="text/css">
   <![CDATA[
    .fil2 {fill:#346699}
    .fil3 {fill:#8DCCE6}
    .fil1 {fill:white}
    .fil0 {fill:url(#id0)}
   ]]>
  </style>
  <linearGradient id="id0" gradientUnits="userSpaceOnUse" x1="11854.7" y1="34096.7" x2="11854.7" y2="33426">
   <stop offset="0" style="stop-opacity:1; stop-color:#264B70"/>
   <stop offset="1" style="stop-opacity:1; stop-color:#346699"/>
  </linearGradient>
 </defs>
 <g id="Слой_x0020_1">
  <metadata id="CorelCorpID_0Corel-Layer"/>
  <g id="_618116752">
   <path class="fil0" d="M11770 33642c0,-47 38,-85 85,-85 47,0 85,38 85,85 0,47 -38,85 -85,85 -47,0 -85,-38 -85,-85zm120 412c43,-69 135,-221 157,-266 10,-22 18,-51 24,-87 34,-139 -72,-275 -216,-275 -145,0 -250,136 -216,275 6,36 14,65 24,87 22,45 114,197 156,266l20 33c8,13 24,13 31,0l20 -33z"/>
   <g>
    <circle class="fil1" cx="11855" cy="33655" r="182"/>
    <circle class="fil2" cx="11855" cy="33655" r="142"/>
    <circle class="fil3" cx="11855" cy="33655" r="99"/>
    <circle class="fil1" cx="11855" cy="33655" r="53"/>
   </g>
  </g>
 </g>
</svg>
