<svg width="25" height="26" viewBox="0 0 25 26" fill="none" xmlns="http://www.w3.org/2000/svg">
<g clip-path="url(#clip0)">
<mask id="path-1-inside-1" fill="white">
<path d="M20.0924 25.5963C19.0522 25.5963 17.796 25.3356 16.4144 24.8143C13.3856 23.6724 10.0902 21.4155 7.13538 18.4606C4.17971 15.505 1.9228 12.2087 0.780055 9.17991C-0.258423 6.42605 -0.260945 4.16579 0.774169 3.13151C0.923004 2.98268 1.07436 2.82291 1.23076 2.6581C2.17506 1.66503 3.24213 0.547509 4.65648 0.597961C5.63105 0.638323 6.57535 1.24375 7.54236 2.44704C10.3996 6.00057 9.11143 7.26693 7.62056 8.73509L7.35737 8.99576C7.11351 9.23961 6.65271 10.3689 10.9395 14.6557C12.3387 16.0549 13.5319 17.0791 14.4854 17.6988C15.0858 18.089 16.1596 18.6793 16.6002 18.2386L16.8651 17.9712C18.3316 16.4837 19.598 15.1997 23.149 18.0545C24.3523 19.0215 24.9568 19.965 24.9972 20.9412C25.0552 22.3547 23.9293 23.4243 22.9354 24.3678C22.7714 24.5242 22.6116 24.6755 22.4628 24.8235C21.949 25.3381 21.1275 25.5963 20.0924 25.5963ZM4.55558 1.43715C3.55073 1.43715 2.64343 2.39238 1.8404 3.23746C1.67895 3.40732 1.52255 3.57213 1.36867 3.72601C0.597586 4.49625 0.675787 6.52023 1.56711 8.88393C2.66866 11.8034 4.85745 14.9937 7.73071 17.867C10.6031 20.7386 13.7917 22.9273 16.7121 24.028C19.0758 24.9211 21.0998 24.9967 21.8692 24.2273C22.023 24.0735 22.1878 23.9171 22.3577 23.7564C23.2213 22.9358 24.2009 22.0058 24.158 20.974C24.1286 20.2651 23.6123 19.5025 22.6234 18.7078C19.6644 16.3282 18.837 17.1682 17.4647 18.5599L17.1956 18.8315C16.5397 19.4882 15.4743 19.3427 14.028 18.4026C13.0249 17.7501 11.7854 16.6889 10.3458 15.2485C6.78809 11.6916 5.65039 9.51458 6.76371 8.39874L7.03195 8.13387C8.42696 6.76156 9.26867 5.9333 6.88816 2.97259C6.09185 1.98456 5.33002 1.46826 4.62116 1.43799C4.5993 1.43715 4.57744 1.43715 4.55558 1.43715Z"/>
</mask>
<path d="M16.4144 24.8143L16.7675 23.8787L16.7672 23.8786L16.4144 24.8143ZM0.780055 9.17991L-0.155626 9.53276L-0.155567 9.53291L0.780055 9.17991ZM0.774169 3.13151L1.48099 3.83891L1.48128 3.83862L0.774169 3.13151ZM1.23076 2.6581L0.506086 1.96901L0.505395 1.96974L1.23076 2.6581ZM4.65648 0.597961L4.69786 -0.401199L4.69213 -0.401403L4.65648 0.597961ZM7.54236 2.44704L6.76287 3.07346L6.76304 3.07367L7.54236 2.44704ZM7.62056 8.73509L6.91889 8.02258L6.91686 8.02459L7.62056 8.73509ZM7.35737 8.99576L6.65366 8.28525L6.65026 8.28865L7.35737 8.99576ZM14.4854 17.6988L13.9405 18.5373L13.9405 18.5373L14.4854 17.6988ZM16.6002 18.2386L17.3074 18.9458L17.3107 18.9424L16.6002 18.2386ZM16.8651 17.9712L17.5756 18.675L17.5772 18.6733L16.8651 17.9712ZM23.149 18.0545L22.5224 18.8339L22.5225 18.834L23.149 18.0545ZM24.9972 20.9412L25.9964 20.9002L25.9963 20.8999L24.9972 20.9412ZM22.9354 24.3678L22.2469 23.6425L22.2452 23.6442L22.9354 24.3678ZM22.4628 24.8235L21.7577 24.1144L21.7551 24.117L22.4628 24.8235ZM1.8404 3.23746L2.56522 3.9264L2.56531 3.92631L1.8404 3.23746ZM1.36867 3.72601L2.07539 4.4335L2.07577 4.43312L1.36867 3.72601ZM1.56711 8.88393L0.631428 9.23676L0.631494 9.23694L1.56711 8.88393ZM7.73071 17.867L7.02361 18.5741L7.02371 18.5742L7.73071 17.867ZM16.7121 24.028L17.0655 23.0926L17.0648 23.0923L16.7121 24.028ZM21.8692 24.2273L21.162 23.5202L21.8692 24.2273ZM22.3577 23.7564L23.0448 24.4831L23.0466 24.4813L22.3577 23.7564ZM24.158 20.974L23.1589 21.0155L23.1589 21.0155L24.158 20.974ZM22.6234 18.7078L21.9967 19.4871L21.997 19.4874L22.6234 18.7078ZM17.4647 18.5599L18.1751 19.2637L18.1767 19.262L17.4647 18.5599ZM17.1956 18.8315L17.9031 19.5381L17.906 19.5353L17.1956 18.8315ZM14.028 18.4026L13.4828 19.2409L13.483 19.2411L14.028 18.4026ZM10.3458 15.2485L11.0531 14.5416L11.0529 14.5413L10.3458 15.2485ZM6.76371 8.39874L6.06106 7.68717L6.0558 7.69244L6.76371 8.39874ZM7.03195 8.13387L6.33066 7.42098L6.32932 7.42231L7.03195 8.13387ZM6.88816 2.97259L7.66749 2.34598L7.66676 2.34507L6.88816 2.97259ZM4.62116 1.43799L4.66383 0.438895L4.6596 0.438732L4.62116 1.43799ZM20.0924 24.5963C19.2077 24.5963 18.0742 24.3718 16.7675 23.8787L16.0614 25.7499C17.5178 26.2995 18.8968 26.5963 20.0924 26.5963V24.5963ZM16.7672 23.8786C13.9042 22.7992 10.725 20.636 7.84248 17.7535L6.42827 19.1677C9.45545 22.1949 12.867 24.5455 16.0616 25.75L16.7672 23.8786ZM7.84248 17.7535C4.95924 14.8703 2.79595 11.6901 1.71568 8.82691L-0.155567 9.53291C1.04966 12.7273 3.40017 16.1396 6.42827 19.1677L7.84248 17.7535ZM1.71574 8.82707C1.22473 7.52502 1.00041 6.39375 0.999514 5.50986C0.998603 4.60968 1.22552 4.09417 1.48099 3.83891L0.0673499 2.42412C-0.712296 3.20313 -1.00168 4.33489 -1.00048 5.51188C-0.999277 6.70516 -0.703102 8.08095 -0.155626 9.53276L1.71574 8.82707ZM1.48128 3.83862C1.64122 3.67868 1.8022 3.50867 1.95613 3.34646L0.505395 1.96974C0.346518 2.13716 0.204791 2.28668 0.0670626 2.42441L1.48128 3.83862ZM1.95544 3.34719C2.44023 2.83736 2.87681 2.38414 3.3448 2.05314C3.79766 1.73284 4.20511 1.5825 4.62083 1.59733L4.69213 -0.401403C3.6935 -0.437026 2.86024 -0.0538349 2.18991 0.42028C1.5347 0.883693 0.965596 1.48577 0.506086 1.96901L1.95544 3.34719ZM4.6151 1.5971C5.16884 1.62004 5.87239 1.96539 6.76287 3.07346L8.32184 1.82062C7.27832 0.522115 6.09327 -0.343391 4.69786 -0.401182L4.6151 1.5971ZM6.76304 3.07367C8.14207 4.78874 8.30676 5.70202 8.2246 6.21492C8.13466 6.77646 7.72246 7.23125 6.9189 8.02258L8.32222 9.4476C9.00952 8.77076 9.98687 7.85829 10.1994 6.53124C10.4198 5.15553 9.79993 3.65887 8.32168 1.82041L6.76304 3.07367ZM6.91686 8.02459L6.65367 8.28526L8.06106 9.70626L8.32425 9.44559L6.91686 8.02459ZM6.65026 8.28865C6.41093 8.52798 6.23548 8.87956 6.21265 9.3295C6.19123 9.75166 6.30528 10.2149 6.54086 10.7273C7.00657 11.7403 8.06511 13.1955 10.2324 15.3628L11.6466 13.9486C9.52709 11.8291 8.67264 10.5762 8.35802 9.89191C8.20344 9.55568 8.21048 9.42297 8.21008 9.43085C8.20827 9.4665 8.18187 9.58547 8.06447 9.70287L6.65026 8.28865ZM10.2324 15.3628C11.6504 16.7808 12.9009 17.8616 13.9405 18.5373L15.0304 16.8603C14.1629 16.2965 13.027 15.329 11.6466 13.9486L10.2324 15.3628ZM13.9405 18.5373C14.261 18.7456 14.758 19.0418 15.2687 19.2228C15.5224 19.3127 15.8387 19.3961 16.1714 19.395C16.5152 19.394 16.9539 19.2992 17.3074 18.9457L15.8931 17.5315C15.9535 17.4712 16.0214 17.4335 16.0792 17.4134C16.1062 17.404 16.128 17.3995 16.1424 17.3973C16.1567 17.3951 16.1647 17.395 16.1653 17.395C16.1658 17.395 16.1607 17.3951 16.1493 17.3938C16.1379 17.3925 16.122 17.39 16.1011 17.3857C16.0586 17.3767 16.0038 17.3615 15.9368 17.3377C15.6504 17.2362 15.3102 17.0422 15.0304 16.8603L13.9405 18.5373ZM17.3107 18.9424L17.5756 18.675L16.1547 17.2675L15.8898 17.5349L17.3107 18.9424ZM17.5772 18.6733C18.3673 17.8719 18.8216 17.4613 19.3824 17.3721C19.8954 17.2905 20.8085 17.456 22.5224 18.8339L23.7755 17.2751C21.9384 15.7982 20.4429 15.1783 19.0683 15.3969C17.7416 15.6079 16.8294 16.5831 16.153 17.2692L17.5772 18.6733ZM22.5225 18.834C23.6302 19.7241 23.9751 20.4268 23.9981 20.9825L25.9963 20.8999C25.9386 19.5031 25.0743 18.3188 23.7754 17.275L22.5225 18.834ZM23.998 20.9822C24.0149 21.3937 23.8664 21.7991 23.545 22.2524C23.2129 22.7207 22.7579 23.1575 22.2469 23.6425L23.6238 25.093C24.1068 24.6346 24.7117 24.0648 25.1765 23.4091C25.6521 22.7384 26.0375 21.9022 25.9964 20.9002L23.998 20.9822ZM22.2452 23.6442C22.0854 23.7965 21.9159 23.9571 21.7577 24.1144L23.1679 25.5326C23.3074 25.3939 23.4574 25.2518 23.6256 25.0914L22.2452 23.6442ZM21.7551 24.117C21.5032 24.3694 20.9897 24.5963 20.0924 24.5963V26.5963C21.2653 26.5963 22.3949 26.3069 23.1705 25.53L21.7551 24.117ZM4.55558 0.437153C3.73426 0.437153 3.0422 0.824902 2.51688 1.2245C1.98828 1.6266 1.50476 2.13896 1.11549 2.54862L2.56531 3.92631C2.97907 3.49088 3.35072 3.10309 3.72773 2.81631C4.10803 2.52702 4.37205 2.43715 4.55558 2.43715V0.437153ZM1.11558 2.54852C0.951759 2.72087 0.804681 2.87578 0.66156 3.0189L2.07577 4.43312C2.24041 4.26848 2.40614 4.09376 2.56522 3.9264L1.11558 2.54852ZM0.661946 3.01852C-0.0265077 3.70622 -0.192517 4.76602 -0.154772 5.74591C-0.114958 6.77948 0.159287 7.9847 0.631428 9.23676L2.5028 8.53109C2.08361 7.41946 1.87309 6.43084 1.84375 5.66893C1.81233 4.85335 1.99276 4.51604 2.07539 4.4335L0.661946 3.01852ZM0.631494 9.23694C1.7959 12.3231 4.07892 15.6294 7.02361 18.5741L8.43782 17.1599C5.63598 14.358 3.54141 11.2838 2.50273 8.53091L0.631494 9.23694ZM7.02371 18.5742C9.96736 21.517 13.2721 23.8002 16.3594 24.9638L17.0648 23.0923C14.3114 22.0545 11.2389 19.9601 8.43772 17.1598L7.02371 18.5742ZM16.3587 24.9635C17.6112 25.4367 18.8166 25.7108 19.8502 25.7504C20.8301 25.7879 21.8892 25.6215 22.5763 24.9344L21.162 23.5202C21.0797 23.6025 20.7422 23.7831 19.9267 23.7518C19.1651 23.7227 18.1767 23.5124 17.0655 23.0926L16.3587 24.9635ZM22.5763 24.9344C22.7189 24.7918 22.8741 24.6444 23.0447 24.4831L21.6707 23.0298C21.5016 23.1897 21.3272 23.3551 21.162 23.5202L22.5763 24.9344ZM23.0466 24.4813C23.4646 24.0841 23.9909 23.5877 24.3982 23.0438C24.8039 22.5021 25.1925 21.7835 25.1571 20.9325L23.1589 21.0155C23.1664 21.1962 23.0867 21.4586 22.7973 21.845C22.5097 22.2291 22.1144 22.6081 21.6688 23.0316L23.0466 24.4813ZM25.1572 20.9325C25.1091 19.7755 24.298 18.7706 23.2498 17.9283L21.997 19.4874C22.9266 20.2343 23.148 20.7548 23.1589 21.0155L25.1572 20.9325ZM23.2501 17.9286C21.7538 16.7252 20.5202 16.0891 19.3342 16.2262C18.7292 16.2962 18.2403 16.5566 17.8341 16.8608C17.4453 17.152 17.0812 17.5245 16.7526 17.8577L18.1767 19.262C18.5343 18.8994 18.7882 18.645 19.033 18.4616C19.2604 18.2913 19.4206 18.2296 19.5639 18.213C19.8743 18.1771 20.534 18.3108 21.9967 19.4871L23.2501 17.9286ZM16.7543 17.8561L16.4852 18.1277L17.906 19.5353L18.1751 19.2637L16.7543 17.8561ZM16.488 18.1248C16.4172 18.1957 16.3168 18.2621 16.0427 18.2249C15.7228 18.1815 15.2395 17.9974 14.573 17.5642L13.483 19.2411C14.2629 19.7479 15.0354 20.1066 15.7738 20.2068C16.5579 20.3131 17.3181 20.1239 17.9031 19.5381L16.488 18.1248ZM14.5733 17.5643C13.655 16.9671 12.4724 15.9616 11.0531 14.5416L9.63852 15.9554C11.0984 17.4162 12.3947 18.5331 13.4828 19.2409L14.5733 17.5643ZM11.0529 14.5413C9.28859 12.7775 8.20559 11.4323 7.6893 10.4449C7.43245 9.95364 7.35606 9.62527 7.35333 9.42592C7.35115 9.2659 7.39264 9.1842 7.47162 9.10505L6.0558 7.69244C5.57812 8.1712 5.34433 8.78006 5.35352 9.45323C5.36218 10.0871 5.58382 10.7345 5.91695 11.3716C6.58061 12.6408 7.84533 14.1626 9.63881 15.9557L11.0529 14.5413ZM7.46634 9.1103L7.73458 8.84542L6.32932 7.42231L6.06108 7.68719L7.46634 9.1103ZM7.73323 8.84675C8.06735 8.51806 8.44063 8.15398 8.73249 7.76518C9.03743 7.35897 9.29862 6.86995 9.36915 6.26462C9.50745 5.07773 8.87127 3.84316 7.66749 2.34598L6.10883 3.5992C7.28556 5.06273 7.41877 5.72265 7.38259 6.03314C7.36589 6.1765 7.30386 6.3369 7.13303 6.56447C6.94912 6.80946 6.69405 7.06352 6.33067 7.42098L7.73323 8.84675ZM7.66676 2.34507C6.82341 1.29867 5.81986 0.488272 4.66383 0.438904L4.5785 2.43708C4.84018 2.44826 5.36029 2.67045 6.10956 3.60011L7.66676 2.34507ZM4.6596 0.438732C4.61533 0.43703 4.57424 0.437153 4.55558 0.437153V2.43715C4.56731 2.43715 4.57343 2.43716 4.57875 2.43721C4.58354 2.43726 4.58433 2.43732 4.58273 2.43725L4.6596 0.438732Z" fill="#0A0E18" mask="url(#path-1-inside-1)"/>
</g>
<defs>
<clipPath id="clip0">
<rect width="25" height="25" fill="white" transform="translate(0 0.596313)"/>
</clipPath>
</defs>
</svg>
