<!DOCTYPE svg PUBLIC "-//W3C//DTD SVG 20010904//EN" "http://www.w3.org/TR/2001/REC-SVG-20010904/DTD/svg10.dtd">
<svg version="1.0" xmlns="http://www.w3.org/2000/svg" width="51px" height="48px" viewBox="0 0 510 480" preserveAspectRatio="xMidYMid meet">
<g id="layer101" fill="#07c6bf" stroke="none">
 <path d="M0 462 c0 -16 42 -269 56 -335 5 -26 8 -27 65 -27 58 0 59 -1 59 -28 0 -48 25 -72 75 -72 50 0 75 24 75 72 0 27 1 28 59 28 57 0 60 1 65 28 14 65 56 318 56 334 0 17 -17 18 -255 18 -238 0 -255 -1 -255 -18z m290 -391 c0 -10 -7 -24 -16 -32 -20 -16 -48 -1 -52 30 -3 18 1 21 32 21 29 0 36 -4 36 -19z"/>
 </g>

</svg>
