<?xml version="1.0" encoding="UTF-8"?>
<!DOCTYPE svg PUBLIC "-//W3C//DTD SVG 1.1//EN" "http://www.w3.org/Graphics/SVG/1.1/DTD/svg11.dtd">
<!-- Creator: CorelDRAW X8 -->
<svg xmlns="http://www.w3.org/2000/svg" xml:space="preserve" width="210mm" height="297mm" version="1.1" style="shape-rendering:geometricPrecision; text-rendering:geometricPrecision; image-rendering:optimizeQuality; fill-rule:evenodd; clip-rule:evenodd"
viewBox="0 0 21000 29700"
 xmlns:xlink="http://www.w3.org/1999/xlink">
 <defs>
  <style type="text/css">
   <![CDATA[
    .fil1 {fill:#346699}
    .fil0 {fill:white}
   ]]>
  </style>
 </defs>
 <g id="Слой_x0020_1">
  <metadata id="CorelCorpID_0Corel-Layer"/>
  <g id="_787053136">
   <path class="fil0" d="M9564 19736c38,-29 101,-70 165,-79 64,-10 127,14 200,36 72,22 152,43 226,49 73,7 141,0 209,-32 67,-31 135,-86 221,-130 86,-44 190,-77 285,-94 94,-16 179,-16 252,0 74,17 136,50 179,84 43,34 67,69 102,143 35,74 81,188 60,249 -21,61 -109,70 -417,81 -307,12 -833,26 -1149,15 -316,-11 -422,-46 -452,-93 -31,-48 14,-107 42,-145 28,-38 40,-55 77,-84z"/>
   <path class="fil1" d="M10836 19407c-276,58 -380,297 -597,289 -194,-7 -375,-171 -577,-61 -46,25 -98,73 -124,114 38,-13 60,-36 111,-49 136,-35 262,29 382,78 224,92 302,78 474,-47 112,-82 234,-189 418,-216 96,-13 194,-2 275,30 63,25 100,49 147,87 19,15 22,25 47,42 -31,-109 -147,-207 -242,-244 -92,-37 -218,-50 -314,-23z"/>
  </g>
 </g>
</svg>
