<?xml version="1.0" encoding="UTF-8"?>
<!DOCTYPE svg PUBLIC "-//W3C//DTD SVG 1.1//EN" "http://www.w3.org/Graphics/SVG/1.1/DTD/svg11.dtd">
<!-- Creator: CorelDRAW X8 -->
<svg xmlns="http://www.w3.org/2000/svg" xml:space="preserve" width="210mm" height="297mm" version="1.1" style="shape-rendering:geometricPrecision; text-rendering:geometricPrecision; image-rendering:optimizeQuality; fill-rule:evenodd; clip-rule:evenodd"
viewBox="0 0 21000 29700"
 xmlns:xlink="http://www.w3.org/1999/xlink">
 <defs>
  <style type="text/css">
   <![CDATA[
    .fil1 {fill:#75B1D1}
    .fil0 {fill:#8DCCE6}
   ]]>
  </style>
 </defs>
 <g id="Слой_x0020_1">
  <metadata id="CorelCorpID_0Corel-Layer"/>
  <g id="_615637048">
   <path class="fil0" d="M2372 16502c47,12 94,23 140,33 1447,325 2173,-76 3431,-314 1385,-262 1959,-11 3188,-73 2389,-121 2576,-597 5050,-41 1447,325 2172,-77 3431,-315 378,-71 691,-101 1016,-116l0 -165c-384,-25 -773,-27 -887,-21 -2389,121 -2576,596 -5049,41 -1448,-325 -2173,76 -3432,314 -1384,262 -1959,11 -3187,73 -1351,68 -2089,569 -3701,372l0 212z"/>
   <path class="fil1" d="M2372 16502c47,12 94,23 140,33 1447,325 2173,-76 3431,-314 1385,-262 1959,-11 3188,-73 2389,-121 2576,-597 5050,-41 463,104 852,134 1208,118 -61,-3 -138,-3 -238,-8 -168,-7 -401,-26 -666,-79 -266,-54 -564,-142 -828,-226 -264,-84 -492,-164 -700,-238 -207,-73 -394,-139 -619,-197 -46,-12 -92,-23 -141,-34 -577,-72 -1040,-21 -1501,74 -59,21 -163,46 -282,78 -235,65 -533,161 -805,238 -272,78 -518,137 -782,184 -265,46 -548,81 -859,76 -312,-4 -650,-47 -959,-84 -309,-36 -588,-65 -886,-61 -299,4 -617,41 -926,90 -138,22 -274,46 -419,70 -703,149 -1377,308 -2406,182l0 212z"/>
  </g>
 </g>
</svg>
